<svg width="144" height="48" viewBox="0 0 144 48" fill="none" xmlns="http://www.w3.org/2000/svg">
<g id="Coca-Cola_logo">
<path id="Shape" fill-rule="evenodd" clip-rule="evenodd" d="M30.7942 40.8333C42.4632 37.5958 49.699 38.1984 55.0306 41.6329L55.0331 41.6332C57.7328 43.3768 60.9689 45.9066 62.1103 47.6232C58.6844 45.107 53.9797 43.862 50.7185 44.1629C46.7519 44.2286 45.1647 47.3097 45.1647 47.3097C40.8232 39.4052 28.4137 42.8206 24.0683 44.0166C23.636 44.1356 23.2835 44.2326 23.0267 44.2943C22.5841 44.4005 22.108 44.5176 21.6062 44.6409C18.8903 45.3085 15.425 46.1603 12.4796 46.4697C7.50391 46.8891 3.33364 44.8839 1.32494 41.1091C-1.27178 35.6687 0.460515 28.9846 2.37607 24.3185C5.6981 16.5847 11.5699 9.51941 18.9081 4.42066C22.2646 2.36275 25.9014 0.501354 29.8063 0.724518C30.9467 0.934285 31.8651 1.55019 32.3967 2.44141C33.6649 4.94529 32.0527 7.63193 30.9617 9.03482C29.9496 10.2797 27.6029 10.7517 27.6964 8.48425C27.7613 7.00306 28.9683 5.90193 29.408 5.56091C29.9497 5.2074 30.6507 5.14163 31.068 5.14163C31.4635 4.77432 31.7691 2.20575 28.5008 3.04453C24.2363 4.38137 21.0069 7.71092 17.5252 11.5907C11.2875 19.0486 7.77607 25.7725 6.47663 32.7594C5.91632 37.0452 6.66663 40.0206 8.75928 41.8686C13.4272 45.0926 17.1413 44.1773 25.9378 42.0097C27.4057 41.6479 29.0151 41.2513 30.7942 40.8333ZM136.586 6.08451C133.308 7.94612 129.911 9.15171 125.798 8.73239C124.658 10.0173 123.548 11.341 122.526 12.7041C128.298 14.1721 134.417 10.9084 137.83 7.80219C141.441 4.66929 143.292 0.724195 143.292 0.724195C143.292 0.724195 140.586 3.81733 136.586 6.08458L136.586 6.08451ZM125.782 41.9978C125.32 42.3123 124.67 42.0705 124.913 41.3498C125.518 39.5147 127.923 35.775 127.923 35.775L134.621 23.8954H130.033C129.815 24.2536 129.348 25.0762 129.348 25.0762C129.136 24.7226 128.501 23.9363 128.24 23.7666C127.119 23.0582 125.475 23.3931 124.34 24.0352C119.472 26.8816 115.904 32.4693 113.082 36.8861L112.971 37.0611C112.971 37.0611 109.983 42.0008 108.325 42.3682C107.03 42.4732 107.163 40.729 107.219 40.3227C107.72 37.3861 108.883 34.5944 110.054 32.0645C112.436 30.4131 115.155 28.2503 117.626 25.8779C122.988 20.7523 127.508 14.9454 128.169 13.6479C128.169 13.6479 127.453 13.7923 126.609 13.8183C122.484 19.5725 114.042 27.936 111.483 29.1804C112.617 26.4536 119.942 13.4379 126.176 7.21218L127.156 6.26809C128.673 4.78689 130.245 3.26644 131.469 3.01734C131.599 3.0043 131.765 3.01734 131.909 3.31931C131.964 4.4726 131.534 5.32471 131.042 6.2946L130.352 7.71045C130.352 7.71045 131.329 7.52687 131.971 7.3166C132.717 5.91471 133.542 4.34132 133.238 2.46731C133.136 1.86427 132.7 1.40558 132.129 1.30063C130.27 0.946715 128.243 2.3226 126.613 3.43713L126.547 3.47617C118.165 10.0432 111.086 19.5075 104.898 32.4316C104.449 32.7719 102.717 33.1787 102.422 32.9818C103.033 31.7238 103.803 30.0325 104.188 28.1975C104.254 27.673 104.316 27.1359 104.316 26.6117C104.316 25.4835 104.045 24.4222 103.035 23.6883C101.85 23.0984 100.385 23.3738 99.3978 23.8193C94.9742 25.6544 91.6683 30.19 89.2827 33.925C87.9995 36.2982 86.7202 38.8398 86.366 41.7505C86.1165 44.0308 86.6244 45.4989 87.921 46.2332C89.2544 46.9144 90.9326 46.2064 91.5919 45.8659C96.0732 43.5066 99.2045 38.7749 101.673 34.4491C101.688 34.447 101.735 34.4443 101.807 34.4402C102.19 34.4182 103.28 34.3555 104.138 34.1346C104.151 34.1346 104.157 34.1346 104.18 34.1483C104.121 34.3441 103.594 35.9175 103.594 35.9175C102.03 40.5049 101.307 43.6247 102.784 45.4731C104.896 48.0817 108.391 45.3817 111.235 41.8158C110.625 46.0889 112.839 46.7576 114.527 46.4302C116.467 45.9062 118.628 43.8346 119.63 42.7733C119.308 44.0183 119.396 46.2468 121.16 46.4694C122.198 46.6613 123.011 46.204 123.883 45.714C124.027 45.6331 124.173 45.5513 124.321 45.4714C128.077 43.4264 132.573 36.6122 133.74 34.6421H132.209L132.027 34.9175L132.027 34.9177C130.396 37.3857 128.342 40.4941 125.783 41.9982L125.782 41.9978ZM100.994 32.746C100.862 32.8382 98.5261 32.0514 98.0747 29.8888C97.6918 28.0268 98.974 26.5719 100.215 25.8385C100.747 25.4189 101.549 25.275 102.137 25.4839C102.683 25.8514 102.831 26.5073 102.831 27.214C102.831 27.6336 102.778 28.0642 102.728 28.4597L102.723 28.4989L102.712 28.591C102.323 30.0455 101.727 31.4744 100.994 32.7461L100.994 32.746ZM119.728 40.7154C119.726 40.7154 119.285 41.1086 119.285 41.1086L119.242 41.1464C118.626 41.6983 117.989 42.2682 117.224 41.9733C117.007 41.8947 116.855 41.6067 116.819 41.3831C116.783 39.7766 117.504 38.2876 118.206 36.8379L118.213 36.8223L118.394 36.4419L118.499 36.2664L118.499 36.2663L118.499 36.2662C120.501 32.923 122.833 29.0279 126.231 26.3103C126.813 25.8899 127.446 25.5367 128.113 25.8122C128.266 25.956 128.445 26.2053 128.445 26.4541C128.445 26.5331 128.375 26.7426 128.335 26.8078C127.482 28.1861 126.665 29.6251 125.869 31.026L125.869 31.0264L125.555 31.5793C123.807 34.6861 121.994 37.897 119.728 40.7158L119.728 40.7154ZM91.7468 40.3822C91.7547 40.8005 91.8337 41.1875 92.0719 41.5415H92.0724C94.0592 43.8483 98.8222 37.223 100.211 34.1294C99.0927 33.6442 97.2405 32.493 96.4225 30.7019H96.4182C94.4663 33.2094 91.7011 37.812 91.7468 40.3822ZM72.2219 16.5521H67.9236L70.3487 12.6118H74.6479L72.2219 16.5521ZM92.1586 17.8947C93.6661 17.5286 99.759 12.927 100.443 5.08869L100.442 5.08847C100.469 4.79975 100.472 4.59056 100.38 4.2628C96.6262 6.18996 93.1272 9.9513 91.0776 14.3822C89.6861 17.6718 91.245 18.0779 92.1586 17.8947ZM88.57 24.8418C88.1336 23.8982 87.0972 23.2952 85.9929 23.3606C82.4067 23.6885 78.899 26.6376 77.0571 30.8715C76.0906 33.0476 75.5632 34.8432 75.2173 37.7005C76.3324 36.4164 78.607 34.3061 81.1883 33.1526C81.1883 33.1526 81.5395 30.4131 83.3305 27.975C84.0082 26.9654 85.3646 25.3402 86.8875 25.7726C88.2181 26.2186 87.7505 29.9019 85.982 33.4662C84.6734 36.0882 82.671 38.7104 80.645 40.5188C78.8538 42.0394 76.2036 43.8743 73.8849 42.4588C72.4245 41.5941 71.6796 39.7848 71.837 37.4516C72.5348 30.8325 75.5479 25.1959 79.8595 18.7732C84.3056 12.8092 89.2066 6.68794 95.8091 3.42323C97.1558 2.74174 98.4029 2.58445 99.4809 3.00394C99.4809 3.00394 93.2831 6.41194 90.3286 12.7171L90.2957 12.7871C89.5472 14.3792 88.5471 16.5065 89.5844 18.3926C90.1344 19.3886 91.1111 19.4674 91.8974 19.4149C95.5187 18.5759 97.8583 15.1942 99.7701 12.101C100.878 9.75475 101.863 7.42152 101.863 4.8258C101.863 4.51129 101.847 4.09204 101.82 3.7771C103.551 2.85994 107.098 4.48492 107.098 4.48492C108.728 5.0245 111.44 6.80972 113.803 8.36528L113.803 8.36537C115.459 9.45593 116.945 10.4336 117.765 10.79C118.736 9.66291 120.333 7.95905 121.231 7.10687L119.93 6.3072C117.934 5.0889 115.829 3.93071 113.75 2.78676L113.478 2.637C108.557 -0.049715 104.55 0.893807 102.511 1.62792C101.71 1.9161 100.978 2.16523 100.978 2.16523C99.4646 0.513748 96.9831 0.670643 95.1546 1.11661C88.579 3.00402 82.474 7.60464 75.9288 15.5875C71.1167 21.8401 68.1313 27.2408 66.5409 32.5752C65.3145 36.1665 64.9419 41.4488 67.935 44.5817C70.4799 47.2417 73.8544 46.6656 76.2376 45.709C81.4007 43.166 86.0411 37.6865 88.3537 31.382C88.9116 29.5079 89.5309 26.8602 88.5702 24.8413L88.57 24.8418ZM30.4621 20.7785C30.4621 20.7785 31.3304 18.7864 31.339 18.7602H31.339C31.6372 17.8686 31.9002 16.9119 31.9 16.0601C31.9 15.4305 31.7562 14.8539 31.3766 14.4081C30.7612 13.9229 29.7014 14.1719 29.0198 14.6442C28.3093 15.1814 26.6968 16.6625 27.0894 18.5501C27.3739 19.5199 28.2971 20.3327 29.5209 20.7126L29.9106 20.7785L29.9406 20.7855C30.1555 20.8354 30.3421 20.8787 30.4621 20.7785ZM29.4738 22.5479C29.4738 22.5479 29.4344 22.6663 29.4149 22.705C29.4099 22.705 27.4412 25.916 27.4412 25.916L27.4126 25.9542C26.2292 27.5341 24.7547 29.5029 22.915 30.4516C22.3653 30.6352 21.6055 30.7534 21.2184 30.2688C20.3975 29.2855 20.8206 27.9224 21.1643 26.8214L21.2859 26.4281C22.2713 23.7544 23.8349 21.3945 25.3567 19.2051C25.3757 19.1922 25.4183 19.1792 25.4337 19.1792L25.4342 19.1809C25.4348 19.1827 25.4354 19.1842 25.4361 19.1857L25.4382 19.1899C25.4412 19.1956 25.4443 19.2016 25.4461 19.2186C26.401 21.0533 28.1917 21.905 29.5309 22.2988C29.539 22.2988 29.5476 22.3119 29.5476 22.3382C29.5478 22.3773 29.5259 22.4301 29.4738 22.5476L29.4738 22.5479ZM58.1701 15.4045C57.5452 15.955 54.982 19.219 54.1014 20.4377L54.1013 20.4375C50.5603 25.2089 49.4127 28.6555 49.3182 29.7825C49.2847 30.1235 49.402 30.4512 49.6993 30.6479C49.9463 30.832 50.3174 30.8057 50.5425 30.7398C52.1213 29.8616 53.0892 28.6033 54.0505 27.1355C54.0505 27.1355 54.7359 26.0872 54.7316 26.1001C56.9081 22.4822 59.223 18.4582 61.1844 14.9455C61.1117 14.3692 60.2717 13.5556 58.1701 15.4045ZM32.2757 12.4683C29.5587 10.6857 24.0978 14.0937 19.7241 19.9391C15.7243 25.1827 13.9972 31.2771 15.8768 34.0955C18.6728 37.4117 23.8634 32.5882 26.0707 30.0063L26.3554 29.7046C27.8288 28.122 28.9733 26.2237 30.0765 24.3938L30.1387 24.2907C30.1387 24.2907 31.1703 22.5867 31.2196 22.5079C31.8572 22.3904 32.6252 22.2068 33.4907 21.9577C33.4902 21.9592 33.4853 21.9681 33.4762 21.9842C33.4687 21.9974 33.4584 22.0154 33.4456 22.038L33.4456 22.038C33.0504 22.7311 30.2022 27.7269 30.5161 30.2939C30.5267 30.3788 30.5354 30.4863 30.5456 30.6122C30.6361 31.7315 30.8434 34.2947 33.5355 35.1312C37.5266 35.8002 40.714 32.7063 43.5252 29.9537C43.5252 29.9537 44.0043 29.4953 44.2753 29.2337C44.2067 29.5082 44.1173 29.8745 44.1173 29.8745C42.9488 33.938 44.5239 34.7905 45.5092 35.1052C48.3304 35.9253 51.6719 32.085 52.0249 31.6793C52.0444 31.6568 52.0548 31.6449 52.0554 31.6449C52.0458 31.7873 52.0342 31.9272 52.0228 32.0644C51.9254 33.2407 51.8436 34.2293 53.1299 35.0393C54.4857 35.5247 55.8579 34.7848 56.9008 34.09C60.6575 31.4423 63.684 27.2984 66.1282 23.7163H64.569C64.5672 23.7163 64.53 23.7679 64.462 23.8622C63.8246 24.7462 60.4815 29.3827 58.2347 30.4727C58.2345 30.4727 58.2321 30.4738 58.2278 30.4758C58.1698 30.5027 57.7605 30.6924 57.5176 30.5212C57.1949 30.2457 57.3222 29.6733 57.5212 29.2678C57.5337 29.2413 67.1219 12.6118 67.1219 12.6118H62.5949C62.5949 12.6118 62.1004 13.4119 62.0601 13.4644C62.0434 13.4501 62.0142 13.4024 61.9828 13.3514L61.9828 13.3514L61.9828 13.3513C61.9569 13.3091 61.9295 13.2646 61.9067 13.2348C59.102 9.35499 52.7502 15.3228 47.9681 22.243C46.1271 24.9041 43.7832 27.9004 41.3527 30.0634C41.3527 30.0634 37.7521 33.3639 36.2137 30.9926C35.6513 29.9962 35.8243 28.5396 36.1415 27.583C37.9327 22.4841 41.0193 17.8569 44.5315 15.0643C45.523 14.2915 46.6007 14.0679 47.1355 14.3957C47.6451 14.6977 47.7273 15.4442 47.4049 15.9555C46.5869 15.9294 45.9316 16.178 45.3988 16.7285C44.3492 17.8297 43.9846 18.8916 44.3183 19.8879C45.9394 22.1948 49.1724 17.6332 49.016 14.8544C48.9601 13.858 48.4285 12.9145 47.6353 12.4553C46.4531 11.7478 44.6494 11.931 43.4822 12.495C41.9197 13.0846 39.4463 15.1423 38.0025 16.7418C36.1849 18.7476 33.0678 20.9757 32.0929 20.7262C32.1227 20.6466 32.1726 20.5276 32.2364 20.3756L32.2366 20.3753C32.8568 18.8972 34.7867 14.2983 32.2754 12.4687L32.2757 12.4683Z" fill="#E6E8F0"/>
</g>
</svg>
