<svg width="149" height="46" viewBox="0 0 149 46" fill="none" xmlns="http://www.w3.org/2000/svg">
<g id="FedEx_Express">
<path id="polygon10" d="M123.717 16.3171L129.843 23.0687L135.741 16.3171H148.334L136.026 30.1576L148.503 44.1112H135.401L129.333 37.3062L123.32 44.1112H110.668L123.036 30.2152L110.668 16.3171H123.717Z" fill="#E6E8F0"/>
<path id="polygon12" d="M110.668 16.317V25.7078H96.661V34.3252H110.668V44.111H86.3671V0.328857H110.668V10.0879H96.661V16.317H110.668Z" fill="#E6E8F0"/>
<path id="path14" fill-rule="evenodd" clip-rule="evenodd" d="M76.1164 0.328857V18.2466H76.0032C73.7321 15.6381 70.8974 14.7309 67.608 14.7309C60.8688 14.7309 55.7918 19.3142 54.0103 25.3705C51.9758 18.6971 46.7342 14.6054 38.9623 14.6054C32.651 14.6054 27.6665 17.4381 25.0663 22.0543V16.317H12.0199V10.0879H26.2574V0.328857H0.390869V44.111H12.0199V25.7078H23.6119C23.2663 27.0594 23.0812 28.5076 23.0812 30.0361C23.0812 39.1677 30.059 45.5778 38.9623 45.5778C46.4503 45.5778 51.3854 42.0621 53.9938 35.6541H44.027C42.6796 37.5817 41.6572 38.1515 38.9623 38.1515C35.8375 38.1515 33.1426 35.4258 33.1426 32.194H53.4364C54.3168 39.4475 59.9678 45.7033 67.7212 45.7033C71.0661 45.7033 74.1292 44.0575 76.0012 41.2804H76.1143V44.1151H86.365V0.328857H76.1164ZM33.4677 25.8374C34.1136 23.0562 36.2716 21.2397 38.9644 21.2397C41.9287 21.2397 43.9756 23.0006 44.5145 25.8374H33.4677ZM63.7653 30.2479C63.7653 33.9241 66.1145 37.4459 69.8935 37.4459C74.0284 37.4459 75.816 33.9734 75.816 30.2479C75.816 26.3188 74.1292 22.5398 69.8935 22.5398C65.808 22.5398 63.7653 26.3188 63.7653 30.2479Z" fill="#AEB0C1"/>
</g>
</svg>
