<svg width="575" height="665" viewBox="0 0 575 665" fill="none" xmlns="http://www.w3.org/2000/svg">
<g id="Ill">
<path id="Path 3" d="M377.217 256.36C377.217 256.36 387.621 294.158 414.749 291.169C441.877 288.179 428.253 294.386 409.315 341.866C390.378 389.346 422.548 367.33 422.994 408.857C423.44 450.384 324.386 468.139 322.661 436.464C320.937 404.789 209.021 373.274 209.021 373.274C209.021 373.274 74.8885 419.663 74.8885 380.331C74.8885 341 98.6331 334.5 98.6331 334.5C98.6331 334.5 67.2782 324.652 66.9007 302.671C66.5232 280.691 86.0966 287.288 86.0966 287.288C86.0966 287.288 63.5862 185.606 113.792 181.92C163.998 178.233 178.1 107.915 196.09 108.219C227.641 108.751 230.25 191.209 318.474 192.697C345.567 193.154 353.409 158.177 374.447 159.25C393.892 160.241 425.219 199.396 425.219 199.396C425.219 199.396 422.396 128.986 468.43 155.584C514.464 182.182 418.127 248.072 480.62 262.599C543.114 277.127 561.879 239.194 561.879 239.194" stroke="#82CAC7" stroke-width="3"/>
<g id="Group 24">
<path id="Path 12" fill-rule="evenodd" clip-rule="evenodd" d="M285.402 652.244L300.736 663.392L233.555 658.694L257.325 556.929L252.318 519.195C252.318 519.195 251.022 548.76 247.642 556.252C239.822 573.589 197.133 646.071 197.133 646.071L214.471 657.359L143.121 652.37L196.339 542.641C196.339 542.641 196.509 418.34 254.71 422.409C312.911 426.479 301.98 555 301.98 555L285.402 652.244Z" fill="#1A0D7C"/>
</g>
<g id="Group 28">
<path id="Shape" d="M95.5 505.527C95.5 486.458 80.0538 471 61 471" stroke="#1A0D7C" stroke-width="2"/>
<g id="Group 23">
<path id="Mask" fill-rule="evenodd" clip-rule="evenodd" d="M60.25 532.801C74.7475 532.801 86.5 521.039 86.5 506.53C86.5 492.021 74.7475 480.26 60.25 480.26C45.7525 480.26 34 492.021 34 506.53C34 521.039 45.7525 532.801 60.25 532.801Z" fill="#9FDEEB"/>
<mask id="mask0_0_274" style="mask-type:luminance" maskUnits="userSpaceOnUse" x="34" y="480" width="53" height="53">
<path id="Mask_2" fill-rule="evenodd" clip-rule="evenodd" d="M60.25 532.801C74.7475 532.801 86.5 521.039 86.5 506.53C86.5 492.021 74.7475 480.26 60.25 480.26C45.7525 480.26 34 492.021 34 506.53C34 521.039 45.7525 532.801 60.25 532.801Z" fill="white"/>
</mask>
<g mask="url(#mask0_0_274)">
<g id="Group 23_2">
<path id="Path 7" d="M87.3805 485.609C87.3805 485.609 50.5433 501.68 70.9019 478.031" stroke="white" stroke-width="0.5"/>
<path id="Path 8" d="M84.7922 519.847C84.7922 519.847 53.8091 503.563 57.906 511.35C62.0029 519.136 72.5973 526.388 72.5973 526.388C72.5973 526.388 51.3087 519.542 65.7482 531.897C80.1877 544.251 76.2532 541.168 76.2532 541.168" stroke="white" stroke-width="0.5"/>
<path id="Oval" fill-rule="evenodd" clip-rule="evenodd" d="M45.7845 502.187C48.2061 501.627 49.9677 500.3 49.7192 499.223C49.4708 498.146 47.3063 497.727 44.8847 498.286C42.4631 498.846 40.7014 500.172 40.9499 501.249C41.1984 502.326 43.3629 502.746 45.7845 502.187Z" fill="white"/>
<path id="Oval Copy 8" fill-rule="evenodd" clip-rule="evenodd" d="M85.6516 512.765C87.1161 514.231 88.9365 514.785 89.7175 514.003C90.4986 513.222 89.9445 511.4 88.4801 509.934C87.0156 508.469 85.1953 507.914 84.4142 508.696C83.6332 509.478 84.1872 511.299 85.6516 512.765Z" fill="white"/>
</g>
</g>
</g>
</g>
<g id="Group 22">
<g id="Group 21">
<rect id="Rectangle Copy 9" x="239.992" y="459.237" width="9" height="17.0132" rx="4.5" transform="rotate(126 239.992 459.237)" fill="white"/>
</g>
<path id="Rectangle" d="M247.074 457.329L242.96 462.992C239.714 467.461 233.46 468.451 228.992 465.205L220.902 459.327C216.434 456.081 215.443 449.827 218.689 445.359L222.804 439.696L247.074 457.329Z" fill="#F6DFD2"/>
<path id="Rectangle_2" fill-rule="evenodd" clip-rule="evenodd" d="M371.892 313.136C371.561 315.368 370.695 317.486 369.369 319.311L266.03 461.546C263.433 465.12 258.43 465.913 254.855 463.316L216.792 435.661C213.217 433.064 212.425 428.061 215.022 424.487L318.433 282.153C319.714 280.391 321.387 278.952 323.321 277.95L371.172 253.166C375.518 250.915 380.585 254.533 379.867 259.374L371.892 313.136Z" fill="#82CAC7"/>
</g>
<path id="Path 6" fill-rule="evenodd" clip-rule="evenodd" d="M287.989 272.811C287.989 272.811 299.835 291.196 293.781 303.087C287.727 314.979 276.796 316.432 276.796 316.432C276.796 316.432 272.07 327.884 273.963 337.351C271.354 333.542 259.833 323.622 259.833 323.622L272.07 274.835L281.509 264.046L287.989 272.811Z" fill="#F6DFD2"/>
<path id="Path 5" fill-rule="evenodd" clip-rule="evenodd" d="M215.218 435.496C191.075 422.892 201.5 395.702 201.5 395.702C201.5 395.702 235.918 397.649 243.568 368.48C248.269 350.554 259.494 325.167 259.494 325.167C259.494 325.167 270.807 329.323 276.767 343.71C282.726 358.096 295.261 379.132 311.004 379.132C342.874 379.132 342.874 340.258 342.874 340.258C342.874 340.258 345.782 337.035 348.505 336.184C351.229 335.332 355.205 335.168 355.205 335.168C355.205 335.168 372.496 391.743 330.433 410.662C288.37 429.581 257.774 391.144 257.774 391.144L248.953 377.732L218.939 419.079C218.939 419.079 213.608 425.688 213.537 428.238C213.519 428.865 213.519 429.548 213.537 430.087C213.558 430.753 213.868 431.463 214.021 431.99C216.272 439.696 217.122 436.49 215.218 435.496Z" fill="#FCF9FF"/>
<path id="Path 5_2" d="M218.574 438.241C203.645 425.708 201.5 395.702 201.5 395.702C201.5 395.702 235.918 397.649 243.568 368.48C248.269 350.554 259.494 325.167 259.494 325.167C259.494 325.167 270.807 329.323 276.767 343.71C282.726 358.096 295.261 379.132 311.004 379.132C342.874 379.132 342.874 340.258 342.874 340.258C342.874 340.258 345.782 337.035 348.505 336.184C351.229 335.332 355.205 335.168 355.205 335.168C355.205 335.168 372.496 391.743 330.433 410.662C304.648 422.26 282.094 417.692 262.772 396.959C261.081 395.144 248.389 377.031 248.389 377.031" stroke="#1A0D7C" stroke-width="2"/>
<g id="Path 11">
<path id="Mask_3" fill-rule="evenodd" clip-rule="evenodd" d="M283.283 287.637C283.283 287.637 277.625 285.927 276.689 289.914C275.752 293.901 279.293 297.88 279.293 297.88C279.293 297.88 280.871 314.762 262.218 328.87C251.442 337.019 252.043 365.565 242.446 379.49C233.187 392.924 216.678 402.938 201.027 396.441C165.296 381.607 175.533 342.884 191.563 327.092C210.045 308.885 228.291 323.747 244.174 275.524C248.799 261.481 269.963 252.984 282.343 261.626C294.723 270.268 283.283 287.637 283.283 287.637Z" fill="#1A0D7C"/>
<mask id="mask1_0_274" style="mask-type:luminance" maskUnits="userSpaceOnUse" x="176" y="258" width="113" height="141">
<path id="Mask_4" fill-rule="evenodd" clip-rule="evenodd" d="M283.283 287.637C283.283 287.637 277.625 285.927 276.689 289.914C275.752 293.901 279.293 297.88 279.293 297.88C279.293 297.88 280.871 314.762 262.218 328.87C251.442 337.019 252.043 365.565 242.446 379.49C233.187 392.924 216.678 402.938 201.027 396.441C165.296 381.607 175.533 342.884 191.563 327.092C210.045 308.885 228.291 323.747 244.174 275.524C248.799 261.481 269.963 252.984 282.343 261.626C294.723 270.268 283.283 287.637 283.283 287.637Z" fill="white"/>
</mask>
<g mask="url(#mask1_0_274)">
<path id="Path 11_2" fill-rule="evenodd" clip-rule="evenodd" d="M279.125 296.898C279.125 296.898 268.608 318.865 253.423 318.865C238.239 318.865 225.136 321.019 215.998 350.301C206.86 379.583 169.5 363.786 169.5 363.786C169.5 363.786 177.99 399.292 191.307 409.155C204.624 419.018 258.98 395.481 258.98 395.481C258.98 395.481 275.832 338.04 279.125 320.841C282.419 303.641 279.125 296.898 279.125 296.898Z" fill="#392B9D"/>
</g>
</g>
<g id="Path 9">
<path id="Mask_5" d="M220.544 233.784C220.544 209.603 200.957 190 176.794 190C152.632 190 133.044 209.603 133.044 233.784C133.044 257.965 152.632 277.568 176.794 277.568V256.552C164.23 256.552 154.044 246.358 154.044 233.784C154.044 221.21 164.23 211.016 176.794 211.016C189.359 211.016 199.544 221.21 199.544 233.784H220.544Z" fill="#1A0D7C"/>
<mask id="mask2_0_274" style="mask-type:luminance" maskUnits="userSpaceOnUse" x="133" y="190" width="88" height="88">
<path id="Mask_6" d="M220.544 233.784C220.544 209.603 200.957 190 176.794 190C152.632 190 133.044 209.603 133.044 233.784C133.044 257.965 152.632 277.568 176.794 277.568V256.552C164.23 256.552 154.044 246.358 154.044 233.784C154.044 221.21 164.23 211.016 176.794 211.016C189.359 211.016 199.544 221.21 199.544 233.784H220.544Z" fill="white"/>
</mask>
<g mask="url(#mask2_0_274)">
<path id="Path 9_2" d="M114.15 266.523C126.238 260.442 134.635 260.483 143.171 273.305C143.492 273.786 141.93 273.372 141.452 273.046C140.388 272.32 139.5 271.332 138.747 270.287C138.179 269.497 137.843 268.553 137.549 267.625C137.212 266.56 136.812 265.461 136.866 264.345C137.032 260.898 137.585 257.473 138.202 254.076C138.495 252.47 138.85 250.834 139.588 249.376C140.054 248.458 140.9 247.763 141.718 247.137C142.259 246.724 142.935 246.51 143.588 246.316C146.096 245.571 148.583 244.637 151.179 244.326C152.369 244.184 153.587 244.57 154.709 244.984C157.08 245.861 154.269 248.651 153.491 248.986C147.987 251.359 138.306 248.586 138.743 241.311C138.842 239.663 139.501 238.069 140.212 236.575C140.499 235.971 141.075 235.508 141.66 235.18C144.477 233.601 147.529 232.467 150.348 230.892C150.582 230.762 150.743 230.407 150.659 230.154C150.349 229.221 149.86 228.333 149.243 227.569C148.14 226.201 146.89 224.942 145.542 223.813C142.952 221.644 140.37 219.414 137.458 217.699C136.614 217.201 135.517 217.268 134.538 217.331C128.157 217.743 121.747 223.314 116.71 226.844" stroke="white"/>
<path id="Path 9 Copy" d="M181.62 223.999C193.707 217.918 202.105 217.96 210.641 230.781C210.961 231.262 209.4 230.848 208.922 230.522C207.857 229.796 206.969 228.808 206.217 227.763C205.649 226.973 205.313 226.029 205.019 225.101C204.682 224.036 204.282 222.937 204.336 221.821C204.502 218.374 205.054 214.949 205.672 211.552C205.964 209.946 206.319 208.31 207.058 206.852C207.523 205.934 208.37 205.239 209.188 204.613C209.729 204.2 210.405 203.986 211.058 203.792C213.565 203.047 216.052 202.113 218.649 201.803C219.839 201.66 221.057 202.046 222.179 202.46C224.55 203.337 221.739 206.127 220.96 206.462C215.457 208.835 205.776 206.062 206.213 198.787C206.312 197.139 206.971 195.545 207.681 194.051C207.969 193.447 208.545 192.984 209.13 192.656C211.947 191.077 214.999 189.943 217.818 188.369C218.052 188.238 218.213 187.883 218.129 187.63C217.819 186.697 217.33 185.809 216.713 185.045C215.609 183.677 214.359 182.418 213.011 181.289C210.422 179.12 207.84 176.89 204.928 175.175C204.084 174.677 202.987 174.744 202.008 174.807C195.627 175.219 189.217 180.79 184.18 184.32" stroke="white"/>
</g>
</g>
<path id="Oval_2" fill-rule="evenodd" clip-rule="evenodd" d="M288.75 291.14C289.44 291.14 290 290.356 290 289.389C290 288.422 289.44 287.637 288.75 287.637C288.06 287.637 287.5 288.422 287.5 289.389C287.5 290.356 288.06 291.14 288.75 291.14Z" fill="#0E101A"/>
<path id="Path 10" d="M294 290.845C295.165 292.575 296.328 294.991 296.328 294.991" stroke="#0E101A" stroke-linecap="round"/>
<g id="Group 23 Copy">
<path id="Mask_7" fill-rule="evenodd" clip-rule="evenodd" d="M521.714 171.419C516.902 178.83 519.008 188.739 526.419 193.552C533.83 198.364 543.739 196.258 548.552 188.847C553.364 181.436 551.258 171.527 543.847 166.714C536.436 161.901 526.527 164.008 521.714 171.419Z" fill="#82CAC7"/>
<mask id="mask3_0_274" style="mask-type:luminance" maskUnits="userSpaceOnUse" x="519" y="164" width="33" height="33">
<path id="Mask_8" fill-rule="evenodd" clip-rule="evenodd" d="M521.714 171.419C516.902 178.83 519.008 188.739 526.419 193.552C533.83 198.364 543.739 196.258 548.552 188.847C553.364 181.436 551.258 171.527 543.847 166.714C536.436 161.901 526.527 164.008 521.714 171.419Z" fill="white"/>
</mask>
<g mask="url(#mask3_0_274)">
<g id="Group 23_3">
<path id="Path 7_2" d="M543.602 196.564C543.602 196.564 547.696 172.525 552.877 190.644" stroke="white" stroke-width="0.5"/>
<path id="Path 8_2" d="M520.533 188.565C520.533 188.565 538.998 178.1 533.717 177.64C528.436 177.18 521.273 180.207 521.273 180.207C521.273 180.207 531.771 171.595 520.763 174.912C509.756 178.229 512.612 177.232 512.612 177.232" stroke="white" stroke-width="0.5"/>
<path id="Oval_3" fill-rule="evenodd" clip-rule="evenodd" d="M542.6 173.77C542.217 174.806 542.748 175.951 543.786 176.328C544.824 176.705 545.977 176.17 546.36 175.134C546.743 174.098 546.212 172.953 545.174 172.576C544.135 172.2 542.983 172.734 542.6 173.77Z" fill="white"/>
<path id="Oval Copy 8_2" fill-rule="evenodd" clip-rule="evenodd" d="M523.818 191.321C522.594 191.588 521.712 192.334 521.848 192.988C521.983 193.642 523.085 193.956 524.309 193.69C525.532 193.423 526.414 192.676 526.279 192.022C526.143 191.368 525.042 191.054 523.818 191.321Z" fill="white"/>
</g>
</g>
</g>
<g id="Group 27">
<rect id="Rectangle_3" x="400.301" y="330.301" width="149.399" height="117.399" rx="5.63584" fill="#FBFBFD" stroke="#1A0D7C" stroke-width="2.60116"/>
<path id="Shape_2" d="M428.531 356.826V427.261C428.531 427.261 492.618 426.948 521.469 427.261" stroke="#F6DFD2" stroke-width="3"/>
<path id="Path 18" d="M426.794 426.391C429.945 422.037 442.79 397.781 464.157 401.146C483.894 404.254 488.862 371.294 496.001 368.13C506.724 363.38 512.927 383.789 529.286 368.13" stroke="#1A0D7C" stroke-width="4"/>
<path id="Path 15" d="M399 344.768H551" stroke="#1A0D7C" stroke-width="2.60116"/>
<path id="Oval_4" fill-rule="evenodd" clip-rule="evenodd" d="M418.109 340.304C419.548 340.304 420.714 339.136 420.714 337.696C420.714 336.255 419.548 335.087 418.109 335.087C416.669 335.087 415.503 336.255 415.503 337.696C415.503 339.136 416.669 340.304 418.109 340.304Z" fill="#F6DFD2"/>
<path id="Oval Copy" fill-rule="evenodd" clip-rule="evenodd" d="M409.423 340.304C410.862 340.304 412.029 339.136 412.029 337.696C412.029 336.255 410.862 335.087 409.423 335.087C407.984 335.087 406.817 336.255 406.817 337.696C406.817 339.136 407.984 340.304 409.423 340.304Z" fill="#F6DFD2"/>
<path id="Oval Copy 2" fill-rule="evenodd" clip-rule="evenodd" d="M426.794 340.304C428.233 340.304 429.4 339.136 429.4 337.696C429.4 336.255 428.233 335.087 426.794 335.087C425.355 335.087 424.189 336.255 424.189 337.696C424.189 339.136 425.355 340.304 426.794 340.304Z" fill="#F6DFD2"/>
</g>
<g id="Group 26">
<rect id="Rectangle Copy 2" x="378.301" y="373.301" width="56.3988" height="117.399" rx="5.63584" fill="#FBFBFD" stroke="#1A0D7C" stroke-width="2.60116"/>
<path id="Path 20" d="M408.888 474.651C408.565 474.441 405.741 472.911 403.481 473.99C400.732 475.304 400.393 481.552 403.511 482.492C414.563 485.823 412.528 475.949 408.439 474.442" stroke="#F6DFD2" stroke-width="3"/>
<path id="Path 21" d="M385.322 398.087C399.783 397.212 414.294 398.087 428.191 398.087" stroke="#1A0D7C" stroke-width="2.60116"/>
<path id="Path 21 Copy" d="M385.322 438.716C390.883 437.841 396.463 438.716 401.807 438.716" stroke="#1A0D7C" stroke-width="2.60116"/>
<path id="Path 21 Copy 2" d="M409.971 438.716C415.531 437.841 421.112 438.716 426.456 438.716" stroke="#1A0D7C" stroke-width="2.60116"/>
<path id="Path 22" d="M385.676 404.885C396.667 404.517 407.461 404.701 418.452 404.332" stroke="#1A0D7C" stroke-width="2.60116"/>
<path id="Path 22 Copy" d="M385.322 442.906C389.686 442.537 393.972 442.721 398.337 442.353" stroke="#1A0D7C" stroke-width="2.60116"/>
<path id="Path 22 Copy 2" d="M409.971 442.906C414.335 442.537 418.621 442.721 422.985 442.353" stroke="#1A0D7C" stroke-width="2.60116"/>
<rect id="Rectangle_4" x="390.882" y="380.696" width="32.1029" height="3.47826" rx="1.7341" fill="#F6DFD2"/>
<g id="Rectangle_5">
<mask id="path-47-inside-1_0_274" fill="white">
<rect x="385.676" y="413.739" width="19.0882" height="18.2609" rx="1.7341"/>
</mask>
<rect x="385.676" y="413.739" width="19.0882" height="18.2609" rx="1.7341" stroke="#F6DFD2" stroke-width="6" mask="url(#path-47-inside-1_0_274)"/>
</g>
<g id="Rectangle Copy 4">
<mask id="path-48-inside-2_0_274" fill="white">
<rect x="385.676" y="449.391" width="41.6471" height="17" rx="1.7341"/>
</mask>
<rect x="385.676" y="449.391" width="41.6471" height="17" rx="1.7341" stroke="#F6DFD2" stroke-width="6" mask="url(#path-48-inside-2_0_274)"/>
</g>
<g id="Rectangle Copy 3">
<mask id="path-49-inside-3_0_274" fill="white">
<rect x="408.235" y="413.739" width="19.0882" height="18.2609" rx="1.7341"/>
</mask>
<rect x="408.235" y="413.739" width="19.0882" height="18.2609" rx="1.7341" stroke="#F6DFD2" stroke-width="6" mask="url(#path-49-inside-3_0_274)"/>
</g>
</g>
<path id="&#60;/&#62;" d="M545.195 501.769L540.783 496.919L545.829 492.701L545.842 492.521L543.641 490.022L536.28 496.364L536.249 496.813L542.655 504.117L545.183 501.948L545.195 501.769ZM561.651 484.785L557.821 484.517L546.081 509.199L549.881 509.464L561.651 484.785ZM566.783 498.737L561.739 502.926L561.726 503.105L563.927 505.605L571.287 499.263L571.319 498.814L564.913 491.509L562.385 493.678L562.373 493.858L566.783 498.737Z" fill="#9FDEEB"/>
<path id="}" d="M155.265 452.419L155.662 455.241C156.332 455.268 156.964 455.24 157.499 455.165C160.648 454.722 161.87 452.642 161.419 449.433L160.835 445.274C160.676 444.145 160.692 442.749 162.564 442.486L162.184 439.783C160.312 440.046 159.912 438.709 159.754 437.58L159.169 433.421C158.718 430.212 156.97 428.549 153.821 428.992C153.286 429.067 152.67 429.214 152.033 429.425L152.43 432.247C152.829 432.07 153.152 431.994 153.449 431.952C154.608 431.789 155.162 432.499 155.391 434.133L155.951 438.114C156.201 439.897 156.253 441.343 158.573 441.684C156.433 442.621 156.786 444.056 157.032 445.808L157.592 449.789C157.838 451.542 157.591 452.152 156.194 452.349C155.927 452.386 155.626 452.398 155.265 452.419Z" fill="#6F4CFF"/>
<path id="%" d="M312.824 218.783C310.917 219.797 310.678 221.691 311.42 223.086C312.152 224.464 313.865 225.342 315.772 224.328C317.697 223.305 317.909 221.403 317.177 220.025C316.435 218.63 314.749 217.76 312.824 218.783ZM321.554 214.413L319.064 215.737L317.515 232.462L320.023 231.129L321.554 214.413ZM313.679 220.39C314.438 219.986 315.136 220.363 315.437 220.928C315.746 221.51 315.668 222.3 314.909 222.704C314.149 223.107 313.468 222.722 313.159 222.139C312.858 221.574 312.919 220.794 313.679 220.39ZM323.347 222.385C321.439 223.399 321.201 225.293 321.942 226.688C322.675 228.065 324.388 228.944 326.295 227.93C328.22 226.906 328.432 225.004 327.699 223.627C326.957 222.232 325.271 221.361 323.347 222.385ZM324.21 224.009C324.97 223.606 325.668 223.982 325.969 224.547C326.278 225.13 326.2 225.919 325.44 226.323C324.681 226.726 324 226.341 323.691 225.758C323.39 225.193 323.451 224.413 324.21 224.009Z" fill="#6F4CFF"/>
<path id="Path 14" fill-rule="evenodd" clip-rule="evenodd" d="M361.804 329.111L337.307 362.563L336 322L359.749 326.032L361.804 329.111Z" fill="#82CAC7"/>
</g>
</svg>
