<svg width="179" height="53" viewBox="0 0 179 53" fill="none" xmlns="http://www.w3.org/2000/svg">
<g id="NASA_Worm_logo">
<g id="N">
<path d="M6.15384 47.9999V12.3076C6.15384 8.22887 9.45969 4.92302 13.5385 4.92302C16.7421 4.92302 19.4683 6.97102 20.4849 9.83133L28.7458 39.3993C29.7625 42.2596 32.4886 44.3076 35.6923 44.3076C39.7711 44.3076 43.0769 41.0018 43.0769 36.923V1.23071" fill="black" fill-opacity="0.01"/>
<path d="M6.15384 47.9999V12.3076C6.15384 8.22887 9.45969 4.92302 13.5385 4.92302C16.7421 4.92302 19.4683 6.97102 20.4849 9.83133L28.7458 39.3993C29.7625 42.2596 32.4886 44.3076 35.6923 44.3076C39.7711 44.3076 43.0769 41.0018 43.0769 36.923V1.23071" stroke="#E6E8F0" stroke-width="9.84615"/>
</g>
<g id="A Clipped">
<g id="A">
<path d="M49.8462 51.0769L63.2074 9.8314C64.2228 6.9711 66.9502 4.9231 70.1539 4.9231C73.3575 4.9231 76.0849 6.9711 77.1003 9.8314L90.4615 51.0769" fill="black" fill-opacity="0.01"/>
<path d="M49.8462 51.0769L63.2074 9.8314C64.2228 6.9711 66.9502 4.9231 70.1539 4.9231C73.3575 4.9231 76.0849 6.9711 77.1003 9.8314L90.4615 51.0769" stroke="#E6E8F0" stroke-width="9.84615"/>
</g>
</g>
<g id="S">
<path d="M128 6.15381H103.993C98.8923 6.15381 94.7569 10.288 94.7569 15.387C94.7569 20.4861 98.8923 24.6203 104 24.6203H116.308C121.406 24.6203 125.538 28.752 125.538 33.8486C125.538 38.9452 121.406 43.0769 116.308 43.0769L91.0769 43.067" fill="black" fill-opacity="0.01"/>
<path d="M128 6.15381H103.993C98.8923 6.15381 94.7569 10.288 94.7569 15.387C94.7569 20.4861 98.8923 24.6203 104 24.6203H116.308C121.406 24.6203 125.538 28.752 125.538 33.8486C125.538 38.9452 121.406 43.0769 116.308 43.0769L91.0769 43.067" stroke="#E6E8F0" stroke-width="9.84615"/>
</g>
<g id="Clipped">
<g id="Path">
<path d="M131.231 51.0769L144.615 9.8314C145.633 6.9711 148.364 4.9231 151.574 4.9231C154.784 4.9231 157.515 6.9711 158.533 9.8314L171.918 51.0769" fill="black" fill-opacity="0.01"/>
<path d="M131.231 51.0769L144.615 9.8314C145.633 6.9711 148.364 4.9231 151.574 4.9231C154.784 4.9231 157.515 6.9711 158.533 9.8314L171.918 51.0769" stroke="#E6E8F0" stroke-width="9.84615"/>
</g>
</g>
</g>
</svg>
