<svg width="178" height="48" viewBox="0 0 178 48" fill="none" xmlns="http://www.w3.org/2000/svg">
<g id="Netflix_2015_logo">
<path id="Shape" fill-rule="evenodd" clip-rule="evenodd" d="M19.5543 45.4728H19.5543L19.5542 45.4728L19.5541 45.4728C18.4504 45.5844 17.3347 45.6971 16.2037 45.8478L7.63339 20.7464V46.9251C5.22521 47.1785 3.00758 47.5083 0.739751 47.8454L0 47.9553V0H7.11856L16.8593 27.2094V0H24.3991V44.8642C22.8042 45.1443 21.1926 45.3072 19.5543 45.4728ZM44.3638 17.4893L44.3641 17.4893C46.1335 17.4549 47.8664 17.4212 49.173 17.4212V24.9141C45.8478 24.9141 41.961 24.9141 39.151 25.0546V36.2007C40.3995 36.121 41.6481 36.0338 42.8976 35.9465C46.054 35.7259 49.2172 35.5049 52.4042 35.4042V42.6159L31.6578 44.2553V0H52.4042V7.49303H39.151V17.5618C40.6333 17.5618 42.5181 17.5251 44.3634 17.4893L44.3636 17.4893H44.3637H44.3638ZM72.4949 7.4932H80.2688L80.2692 0H57.2283V7.4932H65.0022V42.0544C67.437 41.961 69.966 41.961 72.4949 41.961V7.4932ZM92.4449 17.0468H102.701V24.5396H92.4449V41.5396H85.0919V0H106.026V7.49303H92.4449V17.0468ZM127.533 35.4347C124.446 35.2444 121.312 35.0511 118.202 34.983V0H110.709V42.0544C117.547 42.1953 124.244 42.6162 130.94 43.038V35.6385C129.814 35.5753 128.677 35.5052 127.533 35.4347ZM137.262 43.5532L137.656 43.5763L137.656 43.5763C139.928 43.7097 142.313 43.8498 144.615 44.1149V0H137.262V43.5532ZM167.937 22.8069L177.444 0H169.249L164.003 12.5977L159.086 0H151.031L159.742 22.5257L150.095 44.4896C151.218 44.6445 152.325 44.7594 153.429 44.8739C154.995 45.0365 156.556 45.1986 158.15 45.4735L163.629 32.7353L169.014 46.5971C169.716 46.7141 170.418 46.834 171.12 46.9539C173.228 47.3141 175.336 47.6742 177.444 47.9553L167.937 22.8069Z" fill="#E6E8F0"/>
</g>
</svg>
