<svg width="88" height="88" viewBox="0 0 88 88" fill="none" xmlns="http://www.w3.org/2000/svg">
<path fill-rule="evenodd" clip-rule="evenodd" d="M44 75C61.6731 75 81 53 81 53C81 53 61.6731 31 44 31C26.3269 31 7 53 7 53C7 53 26.3269 75 44 75Z" stroke="#1A0D7C" stroke-width="3"/>
<path fill-rule="evenodd" clip-rule="evenodd" d="M44 63C49.5228 63 54 58.5228 54 53C54 47.4772 49.5228 43 44 43C38.4772 43 34 47.4772 34 53C34 58.5228 38.4772 63 44 63Z" stroke="#1A0D7C" stroke-width="4"/>
<path d="M62.5 24.5276L69 13.2692" stroke="#1A0D7C" stroke-width="3"/>
<path d="M18.5 13.4032L25 24.6616" stroke="#1A0D7C" stroke-width="3"/>
<path d="M44 19.4654V7.46539" stroke="#1A0D7C" stroke-width="3"/>
</svg>
