<svg width="88" height="88" viewBox="0 0 88 88" fill="none" xmlns="http://www.w3.org/2000/svg">
<path fill-rule="evenodd" clip-rule="evenodd" d="M74.8879 42.8341L76.7855 39.7255C77.5175 38.5265 77.5175 37.0284 76.7855 35.8293L74.8881 32.7208C74.4945 32.0759 74.3423 31.3088 74.4597 30.5627L75.0253 26.9728C75.2447 25.5814 74.6692 24.194 73.5293 23.3658L70.5886 21.2291C69.9761 20.784 69.54 20.1328 69.3619 19.3975L68.5055 15.8619C68.1745 14.496 67.1143 13.437 65.7481 13.1066L62.2087 12.2509C61.4723 12.0728 60.8201 11.6369 60.3744 11.0249L58.235 8.08664C57.4062 6.94868 56.0194 6.37456 54.6286 6.59243L51.0328 7.15756C50.2852 7.2752 49.5159 7.12279 48.87 6.72914L45.7574 4.83324C44.5589 4.10323 43.0615 4.10323 41.8627 4.83302L38.7507 6.72883C38.1044 7.12258 37.3353 7.27496 36.5877 7.15728L32.9937 6.59222C31.6024 6.37311 30.2152 6.94772 29.3862 8.08633L27.2472 11.024C26.8017 11.636 26.1495 12.0719 25.413 12.2499L21.8736 13.1055C20.5072 13.4359 19.4471 14.495 19.1161 15.8607L18.2595 19.3965C18.0815 20.1314 17.6453 20.7825 17.0327 21.2277L14.0913 23.3649C12.9517 24.1932 12.3761 25.5802 12.5951 26.9716L13.1607 30.5628C13.2782 31.3084 13.1258 32.0756 12.7323 32.7205L10.8345 35.8295C10.1028 37.0282 10.1028 38.5261 10.8345 39.725L12.732 42.8338C13.1256 43.4787 13.2778 44.2458 13.1603 44.9919L12.5948 48.5818C12.3754 49.9732 12.9509 51.3606 14.0908 52.1888L17.0312 54.3257C17.6439 54.7708 18.0799 55.422 18.258 56.1573L19.1145 59.6929C19.4454 61.0588 20.5056 62.1178 21.8718 62.4482L25.4112 63.3039C26.022 63.4516 26.5748 63.7767 27 64.2325V77.2453C27 78.1389 27.2395 79.0161 27.6935 79.7857C29.0965 82.1642 32.162 82.9549 34.5405 81.5518L40.9514 77.7699C42.8324 76.6603 45.1676 76.6603 47.0485 77.7699L53.4595 81.5518C54.2292 82.0058 55.1064 82.2453 56 82.2453C58.7614 82.2453 61 80.0067 61 77.2453V63.8853C61.3545 63.6109 61.7657 63.4116 62.2071 63.3049L65.7465 62.4493C67.1129 62.1189 68.173 61.0598 68.504 59.6941L69.3606 56.1583C69.5386 55.4234 69.9747 54.7723 70.5873 54.3271L73.5287 52.1899C74.6684 51.3616 75.244 49.9746 75.025 48.5833L74.4594 44.992C74.342 44.2465 74.4943 43.4792 74.8879 42.8341ZM58 67.7584C57.1584 68.7029 55.8942 69.1618 54.6262 68.9624L51.0327 68.3974C50.2846 68.2799 49.5154 68.4322 48.8692 68.8258L45.7572 70.7216C44.5584 71.4514 43.061 71.4514 41.8625 70.7214L38.75 68.8255C38.2487 68.5201 37.6707 68.3586 37.0828 68.3586C36.9167 68.3586 36.7508 68.3715 36.5871 68.3972L32.9924 68.9622C31.9039 69.1334 30.8181 68.8191 30 68.1291V77.2453C30 77.6027 30.0958 77.9536 30.2774 78.2615C30.8386 79.2128 32.0648 79.5291 33.0162 78.9679L39.4272 75.186C42.2486 73.5216 45.7514 73.5216 48.5728 75.186L54.9838 78.9679C55.2917 79.1495 55.6426 79.2453 56 79.2453C57.1046 79.2453 58 78.3499 58 77.2453V67.7584ZM73.8591 37.6158C73.9215 37.7181 73.9215 37.8367 73.8591 37.939L71.9613 41.0481C71.1442 42.3874 70.8286 43.9766 71.0725 45.5254L71.6381 49.1165C71.6568 49.2352 71.6112 49.3451 71.5132 49.4163L68.5718 51.5535C67.3009 52.4772 66.398 53.8251 66.0284 55.351L65.1718 58.8867C65.1435 59.0035 65.0587 59.0882 64.9408 59.1168L61.4016 59.9723C59.8746 60.3413 58.5255 61.2431 57.601 62.5127L55.462 65.4504C55.3905 65.5486 55.2797 65.5945 55.1588 65.5754L51.565 65.0104C50.0151 64.7669 48.4252 65.0818 47.0856 65.8977L43.9739 67.7933C43.8707 67.8561 43.7493 67.8561 43.6461 67.7932L40.5338 65.8975C39.4941 65.264 38.2987 64.93 37.0828 64.93C36.7387 64.93 36.3945 64.9568 36.0543 65.0103L32.4598 65.5752C32.3393 65.5942 32.2281 65.5482 32.1565 65.4499L30.0171 62.5116C29.0926 61.2422 27.7436 60.3404 26.2169 59.9714L22.6776 59.1157C22.5597 59.0872 22.4749 59.0025 22.4466 58.8856L21.5902 55.3502C21.2206 53.8238 20.3176 52.4754 19.0466 51.552L16.1063 49.4152C16.0084 49.344 15.9628 49.2343 15.9816 49.1155L16.5472 45.5253C16.7912 43.9758 16.4757 42.3866 15.6585 41.0476L13.761 37.9388C13.6987 37.8367 13.6987 37.7178 13.761 37.6159L15.6588 34.5067C16.476 33.1677 16.7915 31.5784 16.5475 30.0294L15.982 26.4383C15.9633 26.3196 16.0089 26.2097 16.1069 26.1385L19.0483 24.0013C20.3191 23.0776 21.222 21.7297 21.5917 20.2038L22.4482 16.6681C22.4766 16.5513 22.5614 16.4666 22.6793 16.438L26.2185 15.5825C27.7456 15.2134 29.0948 14.3116 30.019 13.042L32.1579 10.1044C32.2295 10.0061 32.3404 9.96016 32.4608 9.97912L36.0549 10.5442C37.6045 10.7881 39.1946 10.4731 40.5344 9.65686L43.646 7.76133C43.7492 7.69854 43.8706 7.69854 43.9738 7.76139L47.0861 9.6571C48.4254 10.4732 50.0157 10.7884 51.5654 10.5445L55.1601 9.97956C55.2803 9.96072 55.392 10.007 55.4634 10.1049L57.6028 13.0432C58.5273 14.3127 59.8763 15.2144 61.403 15.5834L64.9423 16.4391C65.0602 16.4676 65.145 16.5523 65.1733 16.6692L66.0297 20.2046C66.3993 21.731 67.3023 23.0794 68.5733 24.0028L71.5139 26.1395C71.6117 26.2106 71.6572 26.3203 71.6385 26.4391L71.0729 30.0293C70.8289 31.5788 71.1443 33.168 71.9616 34.507L73.8591 37.6158ZM40.7016 33.1464C39.9185 33.1502 39.2857 33.7861 39.2857 34.5692V45.6231C39.2857 46.5413 40.0301 47.2857 40.9484 47.2857H50.4664C53.6803 47.2857 56.2857 44.6803 56.2857 41.4664V35.6419C56.2857 34.2666 55.1724 33.1508 53.7971 33.1479L50.1327 33.1401C49.2818 33.1383 48.5697 32.4951 48.486 31.6482C48.3397 30.1664 48.13 27.9663 48.0677 26.9185C47.9067 23.3749 43.6567 22.2407 43.281 24.3331C43.1297 26.5936 42.9436 29.3412 42.8202 31.1591C42.7444 32.2749 41.82 33.1411 40.7016 33.1464ZM33.9484 33.2857C33.0301 33.2857 32.2857 34.0301 32.2857 34.9484V45.6231C32.2857 46.5413 33.0301 47.2857 33.9484 47.2857H34.6231C35.5413 47.2857 36.2857 46.5413 36.2857 45.6231V34.9484C36.2857 34.0301 35.5413 33.2857 34.6231 33.2857H33.9484Z" fill="#1A0D7C"/>
</svg>
