<svg width="88" height="88" viewBox="0 0 88 88" fill="none" xmlns="http://www.w3.org/2000/svg">
<path fill-rule="evenodd" clip-rule="evenodd" d="M59.3959 4C54.0546 4.42059 49.964 6.32145 47.1241 9.70256C44.2842 13.0837 43.1126 17.1828 43.6095 22C49.6147 21.1061 53.859 18.8477 56.3425 15.2249C58.826 11.602 59.8437 7.86038 59.3959 4ZM46.5812 18.3034C46.8541 15.7637 47.7999 13.5624 49.4213 11.632C51.1295 9.59826 53.4195 8.21826 56.3705 7.49793C56.0714 9.52067 55.2449 11.5201 53.8681 13.5287C52.367 15.7183 49.9697 17.3213 46.5812 18.3034ZM25.6779 34.8362C21.7193 38.0555 19.9985 42.3985 19.9985 48.5743C19.9985 55.5342 22.889 61.9722 28.3162 68.9231L30.6808 67.0769C25.6275 60.6048 22.9985 54.7493 22.9985 48.5743C22.9985 43.2399 24.3769 39.761 27.5707 37.1638L25.6779 34.8362ZM45.7114 77.8177C47.8336 77.8177 49.5249 78.1772 52.4355 79.0901C54.6411 79.7819 54.8805 79.854 55.7896 80.0701C58.4612 80.7052 60.7227 80.6734 63.1635 79.7545C67.6168 78.078 71.7799 72.5483 75.8727 63.1939L76.4188 61.9458L75.2289 61.2824C69.211 57.9277 66.0689 53.458 65.6507 47.7686C65.2334 42.0929 67.6751 37.3673 73.1164 33.4477L74.6767 32.3237L73.2067 31.0839C69.4525 27.9176 66.0047 26.1084 62.825 25.7026C61.2363 25.4998 59.6474 25.5726 57.884 25.8811C56.5804 26.1092 55.9777 26.2614 53.1045 27.0397C49.5336 28.0069 47.5005 28.3859 44.9894 28.3859C42.8318 28.3859 41.3697 28.0429 38.393 27.0238L38.0445 26.9045C34.1306 25.5674 31.8479 25.1808 28.3655 25.7074C19.0554 27.115 11.47 36.4697 12.029 48.8979C12.6227 62.0954 21.539 77.7274 29.4533 79.8017C32.7069 80.6545 35.0326 80.4653 38.1588 79.4508C38.5006 79.3398 38.8447 79.2235 39.5162 78.9949C42.0235 78.1474 43.5438 77.8177 45.7114 77.8177ZM62.6587 47.9885C63.1256 54.3393 66.4753 59.4412 72.5816 63.2072C68.9739 71.1283 65.4188 75.7 62.1066 76.9469C60.2802 77.6345 58.6139 77.6579 56.4835 77.1514C55.6753 76.9593 55.4485 76.891 53.3333 76.2276C50.1544 75.2305 48.2122 74.8177 45.7114 74.8177C43.1538 74.8177 41.3454 75.2099 38.5555 76.1529C37.8778 76.3835 37.5541 76.493 37.2327 76.5973C34.6119 77.4478 32.8514 77.591 30.2139 76.8997C23.7977 75.2181 15.5669 60.7879 15.026 48.7631C14.5356 37.8599 21.0301 29.8506 28.814 28.6737C31.7212 28.2341 33.5761 28.5483 37.0747 29.7435L37.4213 29.8621C40.6887 30.9807 42.4159 31.3859 44.9894 31.3859C47.8327 31.3859 50.0803 30.9669 53.8889 29.9353C56.6552 29.186 57.2264 29.0417 58.401 28.8363C59.8868 28.5763 61.1805 28.517 62.4452 28.6784C64.5942 28.9527 67.0587 30.12 69.8148 32.209C64.6257 36.5127 62.2045 41.8092 62.6587 47.9885Z" fill="#1A0D7C"/>
</svg>
