<svg width="88" height="88" viewBox="0 0 88 88" fill="none" xmlns="http://www.w3.org/2000/svg">
<path fill-rule="evenodd" clip-rule="evenodd" d="M62 12H20C18.8954 12 18 12.8954 18 14V19C16.8954 19 16 19.8954 16 21V22C16 23.1046 16.8954 24 18 24L18 29C18 30.1046 18.8954 31 20 31H62C63.1046 31 64 30.1046 64 29V23H68C68.3284 23.0492 69 23.7318 69 25V35C69 36.1676 68.556 36.7658 68 37L43 44C41.3319 44.3813 40 46.1759 40 48H35.1333C33.9551 48 33 48.8954 33 50V53C33 54.1046 33.9551 55 35.1333 55H36.8125L34 70C34.0194 70.1387 34.0138 70.3438 34.0074 70.5812C34.0038 70.7128 34 70.8543 34 71C34 74.8518 37.1338 78 41 78C41.1297 78 41.2595 77.9964 41.3841 77.9929H41.3843C41.6192 77.9863 41.8359 77.9802 42 78C45.9348 77.2884 48.5271 73.6773 48 70L45.1875 55H46.8667C48.0449 55 49 54.1046 49 53V50C49 48.8954 48.0449 48 46.8667 48H43C43 47.5373 43.444 46.9391 44 47L69 40C70.6681 39.3237 72 37.529 72 35V25C72 22.0477 69.9853 20 68 20H64V14C64 12.8954 63.1046 12 62 12ZM21 22V28H61V15H21V21V22ZM36 51V52H46V51H36ZM37.0033 70.7748C37.0073 70.5929 37.012 70.3747 37 70L39 57H43L45 70C45.3012 72.5215 43.8199 74.592 42 75C41.5922 74.9876 41.3664 74.9929 41.1929 74.9969L41.1924 74.9969C41.1227 74.9986 41.0613 75 41 75C38.7907 75 37 73.195 37 71C37 70.9253 37.0016 70.8534 37.0033 70.7748Z" fill="#1A0D7C"/>
</svg>
