<svg width="88" height="88" viewBox="0 0 88 88" fill="none" xmlns="http://www.w3.org/2000/svg">
<path fill-rule="evenodd" clip-rule="evenodd" d="M16 8H72C76.4183 8 80 11.5817 80 16V72C80 76.4183 76.4183 80 72 80H16C11.5817 80 8 76.4183 8 72V16C8 11.5817 11.5817 8 16 8ZM16 11C13.2386 11 11 13.2386 11 16V22H77V16C77 13.2386 74.7614 11 72 11H16ZM77 25H11V72C11 74.7614 13.2386 77 16 77H72C74.7614 77 77 74.7614 77 72V25ZM19 18C20.1046 18 21 17.1046 21 16C21 14.8954 20.1046 14 19 14C17.8954 14 17 14.8954 17 16C17 17.1046 17.8954 18 19 18ZM29 16C29 17.1046 28.1046 18 27 18C25.8954 18 25 17.1046 25 16C25 14.8954 25.8954 14 27 14C28.1046 14 29 14.8954 29 16ZM35 18C36.1046 18 37 17.1046 37 16C37 14.8954 36.1046 14 35 14C33.8954 14 33 14.8954 33 16C33 17.1046 33.8954 18 35 18ZM51.8158 32.0261L48.9968 31L36 66.7083L38.8191 67.7344L51.8158 32.0261ZM56.2353 40.3107L64.7206 48.7959C65.3064 49.3817 65.3064 50.3315 64.7206 50.9173L56.2353 59.4025L58.3566 61.5239L66.8419 53.0386C68.5992 51.2812 68.5992 48.432 66.8419 46.6746L58.3566 38.1893L56.2353 40.3107ZM22.3033 47.6066L30.7886 39.1213L28.6673 37L20.182 45.4853C18.4246 47.2426 18.4246 50.0919 20.182 51.8492L28.6673 60.3345L30.7886 58.2132L22.3033 49.7279C21.7175 49.1421 21.7175 48.1924 22.3033 47.6066Z" fill="#1A0D7C"/>
</svg>
