<svg width="88" height="88" viewBox="0 0 88 88" fill="none" xmlns="http://www.w3.org/2000/svg">
<path d="M75.451 24.5991C74.7186 23.8672 73.5316 23.8672 72.7991 24.5991L66.7743 30.624C66.1234 31.2754 66.0516 32.2866 66.5584 33.0176C68.5843 36.0791 68.6903 40.0967 66.826 43.2607L62.4461 50.6929C62.1512 51.1948 61.4432 51.2412 61.0814 50.791H61.0809C61.0765 50.7852 61.0716 50.7798 61.0672 50.7739C60.3358 49.8564 59.9335 48.7065 59.9335 47.5337V38.96C59.9335 38.9561 59.9335 38.9517 59.9335 38.9473C59.9154 36.27 57.723 34.0918 55.0458 34.0918C54.6542 34.0918 54.2733 34.1377 53.9081 34.2251V32.9541C53.9081 30.2593 51.7157 28.0664 49.0209 28.0664C48.371 28.0664 47.7499 28.1943 47.182 28.4258C46.851 27.8774 46.414 27.4004 45.9013 27.02L48.2587 24.6626C50.2811 22.6406 53.0761 21.5874 55.9291 21.771C56.4667 21.8062 56.9945 21.6074 57.3758 21.2261L63.4007 15.2007C64.1327 14.4688 64.1327 13.2812 63.4007 12.5493C62.6683 11.8169 61.4813 11.8169 60.7489 12.5493L55.2977 18.0005C55.2948 18.0005 55.2919 18.0005 55.2889 18.0005C51.9408 18.0005 48.704 19.2305 46.1981 21.4551L44.4208 19.6777C41.1977 16.4546 36.2997 15.6685 32.2714 17.5698L27.2509 12.5493C26.519 11.8169 25.3315 11.8169 24.5991 12.5493C23.8672 13.2812 23.8672 14.4688 24.5991 15.2007L30.624 21.2261C31.2563 21.8579 32.246 21.9561 32.9902 21.4604C35.7397 19.627 39.432 19.9922 41.7694 22.3296L43.5287 24.0889L41.2255 26.3926C39.6225 27.02 38.4247 28.4717 38.162 30.2222C37.7807 30.126 37.3818 30.0752 36.9706 30.0752C34.2939 30.0752 32.101 32.2534 32.0834 34.9434V47.5068L25.2426 40.666C23.0063 38.4297 21.7749 35.457 21.7749 32.2944C21.7749 31.9912 21.8545 31.2529 21.2256 30.624L15.2007 24.5991C14.4687 23.8672 13.2812 23.8672 12.5493 24.5991C11.8169 25.3315 11.8169 26.5186 12.5493 27.251L18.0307 32.7329C18.1406 36.7324 19.75 40.4766 22.5908 43.3174L25.4511 46.1777C23.2656 46.4985 22.1816 48.7222 22.8662 50.5562C23.6235 52.5737 24.8637 55.8809 25.956 58.7964C27.4116 62.6758 30.3374 65.7427 34.0917 67.3789V74.125C34.0917 75.1606 34.9316 76 35.9667 76C37.0024 76 37.8417 75.1606 37.8417 74.125V66.0918C37.8417 65.2847 37.3256 64.5679 36.56 64.313C33.2704 63.2163 30.685 60.7256 29.4672 57.4795C28.4926 54.8784 27.4003 51.9653 26.6391 49.9365C28.247 50.1406 29.6972 51.0288 30.6098 52.3984L32.3984 55.0815C33.4238 56.6196 35.8334 55.8921 35.8334 54.0415V34.9561C35.8378 34.3325 36.3481 33.8252 36.9711 33.8252C37.5986 33.8252 38.1088 34.3354 38.1088 34.9624V46.0083C38.1088 47.0439 38.9482 47.8833 39.9838 47.8833C41.019 47.8833 41.8588 47.0439 41.8588 46.0083V30.9346C41.8651 30.313 42.3744 29.8086 42.996 29.8086C43.6234 29.8086 44.1337 30.3188 44.1337 30.9458V46.0083C44.1337 47.0439 44.973 47.8833 46.0087 47.8833C47.0443 47.8833 47.8837 47.0439 47.8837 46.0083V32.9541C47.8837 32.3271 48.3939 31.8169 49.0214 31.8169C49.6488 31.8169 50.1591 32.3271 50.1591 32.9541V46.0083C50.1591 47.0439 50.9984 47.8833 52.0341 47.8833C53.0692 47.8833 53.9091 47.0439 53.9091 46.0083V38.979C53.9091 38.3521 54.4188 37.8418 55.0463 37.8418C55.6678 37.8418 56.1771 38.3467 56.184 38.9678V56.3945C56.184 59.5566 54.9525 62.5298 52.7167 64.7661C52.3646 65.1177 52.1674 65.5947 52.1674 66.0918V74.125C52.1674 75.1606 53.0067 76 54.0424 76C55.0775 76 55.9174 75.1606 55.9174 74.125V66.8403C58.5135 63.9707 59.9339 60.2915 59.9339 56.3945V54.4829C60.8363 54.8677 61.6283 54.8706 62.0624 54.8394C63.5638 54.7305 64.9159 53.8916 65.6781 52.5962L70.0574 45.1646C73.0921 40.0137 71.8084 34.9165 70.4486 32.2534L75.4515 27.251C76.1829 26.5186 76.1829 25.3315 75.451 24.5991Z" fill="#82CAC7"/>
</svg>
