<svg width="88" height="88" viewBox="0 0 88 88" fill="none" xmlns="http://www.w3.org/2000/svg">
<path fill-rule="evenodd" clip-rule="evenodd" d="M67.6216 39.0047C67.6216 46.1806 64.9413 52.7262 60.5337 57.6817L74.9918 72.1257C76.3369 73.4695 76.3368 75.6497 74.9915 76.9934C73.6483 78.335 71.4722 78.3349 70.1291 76.9931L55.353 62.2313C50.9158 65.248 45.5676 67.0093 39.8108 67.0093C24.4513 67.0093 12 54.4712 12 39.0047C12 23.5381 24.4513 11 39.8108 11C55.1703 11 67.6216 23.5381 67.6216 39.0047ZM17.2145 39.0047C17.2145 51.5712 27.3312 61.7584 39.8108 61.7584C52.2904 61.7584 62.4071 51.5712 62.4071 39.0047C62.4071 26.4381 52.2904 16.2509 39.8108 16.2509C27.3312 16.2509 17.2145 26.4381 17.2145 39.0047ZM24.0403 32.5878C26.0225 26.5412 31.6498 22.3769 38.0726 22.3769C39.5126 22.3769 40.6799 23.5523 40.6799 25.0023C40.6799 26.4523 39.5126 27.6278 38.0726 27.6278C33.9164 27.6278 30.2739 30.3233 28.992 34.2338C28.5406 35.6107 27.0662 36.3585 25.6989 35.9039C24.3315 35.4494 23.5889 33.9648 24.0403 32.5878Z" fill="#82CAC7"/>
</svg>
