<svg width="88" height="88" viewBox="0 0 88 88" fill="none" xmlns="http://www.w3.org/2000/svg">
<path fill-rule="evenodd" clip-rule="evenodd" d="M67.7321 13.1292L69.2124 18.9907L74.9217 20.3722C75.7088 20.5626 76.1888 21.356 75.9938 22.1442C75.9292 22.4053 75.7944 22.6441 75.6039 22.8346L66.5899 31.8486C66.2243 32.2142 65.6948 32.3623 65.1949 32.2389L59.9122 30.9344L59.7252 31.1225C63.7433 35.8748 66.1678 42.0324 66.1678 48.7596C66.1678 63.8041 54.0419 76 39.0839 76C24.1259 76 12 63.8041 12 48.7596C12 33.7151 24.1259 21.5191 39.0839 21.5191C45.7724 21.5191 51.8946 23.9576 56.6196 27.9989L57.0146 27.6017L55.8482 22.892C55.7244 22.3919 55.8725 21.862 56.2383 21.4961L65.2732 12.4612C65.8482 11.8862 66.7779 11.8835 67.3496 12.4552C67.5355 12.6411 67.6676 12.8739 67.7321 13.1292ZM64.722 19.2236L60.5234 23.4222L61.3464 26.7455L64.6628 27.5644L68.7988 23.4284L65.5877 22.6514L64.722 19.2236ZM61.7758 48.7596C61.7758 43.2526 59.8366 38.2011 56.6074 34.2583L40.6367 50.3214C39.7791 51.1839 38.3887 51.1839 37.5311 50.3214C36.6735 49.4588 36.6735 48.0604 37.5311 47.1978L53.5018 31.1347C49.5817 27.887 44.5593 25.9365 39.0839 25.9365C26.5515 25.9365 16.392 36.1547 16.392 48.7596C16.392 61.3644 26.5515 71.5827 39.0839 71.5827C51.6163 71.5827 61.7758 61.3644 61.7758 48.7596ZM26.6399 48.7596C26.6399 41.8473 32.2113 36.2437 39.0839 36.2437C40.2967 36.2437 41.2799 37.2326 41.2799 38.4524C41.2799 39.6722 40.2967 40.6611 39.0839 40.6611C34.6369 40.6611 31.0319 44.2869 31.0319 48.7596C31.0319 53.2323 34.6369 56.8581 39.0839 56.8581C43.5309 56.8581 47.1359 53.2323 47.1359 48.7596C47.1359 47.5398 48.119 46.5509 49.3318 46.5509C50.5447 46.5509 51.5278 47.5398 51.5278 48.7596C51.5278 55.6719 45.9565 61.2755 39.0839 61.2755C32.2113 61.2755 26.6399 55.6719 26.6399 48.7596Z" fill="#82CAC7"/>
</svg>
