<svg width="109" height="48" viewBox="0 0 109 48" fill="none" xmlns="http://www.w3.org/2000/svg">
<g id="LEGO_logo">
<path id="path10" fill-rule="evenodd" clip-rule="evenodd" d="M81.132 6.31699C84.5916 2.23403 89.7362 -0.0316523 95.0839 0.172657C106.277 0.172657 109.192 7.49107 108.84 14.3985C108.625 18.547 107.275 23.4976 106.296 26.4524C101.874 39.6021 96.5515 47.9184 84.4585 47.9184C78.9404 47.9184 73.8918 45.766 71.8959 40.3456C68.1623 45.1282 62.4457 47.9396 56.3785 47.9771C51.5452 47.9967 47.7882 46.2747 45.3813 43.3395C42.544 46.4704 37.7498 47.9184 32.9557 47.9184C29.1327 48.0651 25.4247 46.5947 22.7412 43.8679C20.1191 46.5095 15.9903 47.9184 10.7461 47.7815C4.03428 47.6249 0.277236 43.5939 0.159828 37.9975C-0.035851 29.3289 8.22182 11.4438 11.6266 6.02347C13.5893 2.38387 17.4336 0.159011 21.5672 0.270496C23.9349 0.270496 26.3809 0.700991 27.8876 2.28599C29.1204 3.59705 29.3356 4.77112 29.4139 6.9823C33.2296 0.857534 39.6479 0.0161133 45.5183 0.0161133C50.0189 0.0161133 53.776 1.69896 55.3414 4.24279C58.3549 1.67939 62.699 0.0552492 67.904 0.0552492C73.2461 0.0552492 77.2184 1.3663 79.7035 4.16452C80.2947 4.79861 80.7774 5.52586 81.132 6.31699ZM22.2716 36.4908C22.4673 34.4165 20.9018 32.1467 14.6401 33.2425V33.2229C15.2573 31.8457 16.1706 29.9621 17.2078 27.8228C20.5768 20.8738 25.254 11.2269 25.3438 7.4715C25.3829 5.63211 24.6393 4.06668 21.6259 4.06668C18.4559 4.06668 16.4795 5.3973 14.8358 8.0781C11.3136 13.7137 3.79947 30.7378 3.95601 38.0953C4.05385 42.3024 7.32169 43.9657 10.9222 44.044C15.9316 44.1614 21.6846 42.7525 22.2716 36.4908ZM35.0103 27.4504C34.3088 29.403 33.7015 31.3881 33.1905 33.399C35.2114 32.8146 37.3101 32.544 39.4131 32.5967C42.407 32.675 44.3442 33.9078 44.3442 36.3929C44.3442 42.4198 37.6911 44.181 33.0535 44.2005C27.9854 44.2005 23.5239 41.3045 23.5239 35.7667C23.5239 29.2506 27.0462 19.3884 30.3727 12.8331C34.4233 4.75156 38.5913 3.69489 45.7336 3.69489C48.8644 3.69489 52.4845 5.02551 52.4845 7.99983C52.4845 12.1091 49.0014 13.6745 45.5574 13.8702C44.0703 13.9681 41.8004 14.0463 40.4502 13.9485C40.4502 13.9485 39.2957 15.7096 38.0825 18.8209C44.4812 17.9208 47.1816 19.3688 46.1054 23.0671C44.6378 28.057 40.3132 28.3896 35.0103 27.4504ZM62.7577 14.1637C63.6187 12.9897 64.734 11.8939 66.4756 11.8939C68.5889 11.8939 68.3932 13.0092 67.8845 14.4377C66.456 18.547 70.761 18.6448 71.8176 18.547C75.5942 18.273 77.6684 15.827 78.1772 11.6982C78.8817 6.02347 74.1266 3.871 68.0801 3.871C58.0418 3.871 54.0891 9.99576 50.332 18.8013C48.5513 22.9497 46.3206 29.9942 46.3206 34.4948C46.3206 40.7957 50.1755 44.2201 56.359 44.2201C65.3993 44.2201 71.7785 37.0191 73.6179 28.0374C74.1658 25.2588 74.8702 20.0733 67.8453 20.3668C64.284 20.5233 62.1315 21.306 60.9966 24.9457C59.8225 28.7027 64.0687 28.8006 64.0687 28.8006C63.2077 32.675 60.7226 35.0232 58.4919 35.0232C57.1025 35.0232 55.8502 34.4361 56.2611 31.5009C56.8873 27.2155 60.9183 16.7858 62.7577 14.1637ZM104.437 19.3297C103.381 24.613 100.993 30.8748 98.3909 35.5319C94.1642 43.1634 89.0178 44.2201 84.5172 44.1614C80.0362 44.1027 74.9681 42.459 74.9289 35.5319C74.9094 30.5617 77.0618 23.5368 78.8817 18.9383C82.0517 10.5828 85.2999 3.79273 95.5535 3.91013C107.49 4.04711 105.377 14.6725 104.437 19.3101V19.3297ZM89.4483 32.8903C91.1116 30.0725 95.7884 17.2946 95.9058 14.105C95.9449 13.1658 95.8079 12.07 94.3012 12.07C93.2641 12.0504 92.364 12.2461 91.5812 13.4984C89.7614 15.8466 84.4781 30.2877 84.5564 33.1642C84.5955 34.2013 85.1825 35.121 86.4544 35.121C87.922 35.121 88.7243 34.1035 89.4483 32.8903Z" fill="#E6E8F0"/>
</g>
</svg>
