<svg width="610" height="476" viewBox="0 0 610 476" fill="none" xmlns="http://www.w3.org/2000/svg">
<g id="ill">
<g id="Path 9">
<path id="Mask" d="M531.632 44.6691C509.098 26.422 476.18 29.7227 458.107 52.0414C440.034 74.3601 466.182 125.492 466.182 125.492L481.89 106.095C481.89 106.095 468.293 79.506 477.691 67.9003C487.089 56.2946 504.207 54.5782 515.924 64.0667L531.632 44.6691Z" fill="#1A0D7C"/>
<mask id="mask0_0_133" style="mask-type:luminance" maskUnits="userSpaceOnUse" x="451" y="32" width="81" height="94">
<path id="Mask_2" d="M531.632 44.6691C509.098 26.422 476.18 29.7227 458.107 52.0414C440.034 74.3601 466.182 125.492 466.182 125.492L481.89 106.095C481.89 106.095 468.293 79.506 477.691 67.9003C487.089 56.2946 504.207 54.5782 515.924 64.0667L531.632 44.6691Z" fill="white"/>
</mask>
<g mask="url(#mask0_0_133)">
<path id="Path 9 Copy" d="M479.915 84.2861C495.575 80.9853 505.139 83.5996 510.922 100.956C511.14 101.607 509.486 100.653 509.041 100.132C508.051 98.9718 507.343 97.5644 506.807 96.1328C506.402 95.0505 506.311 93.8613 506.262 92.7041C506.205 91.3769 506.088 89.9906 506.493 88.7233C507.745 84.8094 509.431 81.0384 511.182 77.3201C512.01 75.5616 512.919 73.7886 514.211 72.3373C515.025 71.4236 516.204 70.8834 517.331 70.4133C518.074 70.1028 518.912 70.0634 519.715 70.0399C522.805 69.9492 525.929 69.6354 528.986 70.0712C530.387 70.2708 531.657 71.0866 532.809 71.9064C535.243 73.6392 531.178 75.9892 530.186 76.1373C523.178 77.1843 512.992 71.0369 515.733 62.802C516.354 60.9365 517.597 59.3044 518.867 57.8042C519.382 57.1965 520.181 56.8406 520.95 56.6422C524.649 55.6864 528.478 55.315 532.179 54.3651C532.486 54.2864 532.779 53.9271 532.761 53.6105C532.695 52.4433 532.412 51.2725 531.943 50.2045C531.106 48.294 496.564 58.9446 495.375 57.2343C493.09 53.9481 490.833 50.5941 488.04 47.7311C487.231 46.9013 485.96 46.6426 484.824 46.416C481.319 45.7175 492.682 59.395 490.726 66.524C489.464 71.1257 471.428 55.7463 466.133 57.262C462.301 58.3593 471.001 76.8021 469.49 77.3596" stroke="white"/>
</g>
</g>
<g id="Group 36">
<g id="Rectangle">
<g id="Mask_3" filter="url(#filter0_dd_0_133)">
<rect x="166.211" y="7" width="318.599" height="198" rx="1.68675" fill="white"/>
</g>
<mask id="mask1_0_133" style="mask-type:luminance" maskUnits="userSpaceOnUse" x="166" y="7" width="319" height="198">
<rect id="Mask_4" x="166.211" y="7" width="318.599" height="198" rx="1.68675" fill="white"/>
</mask>
<g mask="url(#mask1_0_133)">
<rect id="Rectangle_2" x="166.211" y="7" width="318.599" height="13" fill="#E6E8F0"/>
</g>
</g>
<path id="Oval" fill-rule="evenodd" clip-rule="evenodd" d="M176.5 16C177.881 16 179 14.8807 179 13.5C179 12.1193 177.881 11 176.5 11C175.119 11 174 12.1193 174 13.5C174 14.8807 175.119 16 176.5 16Z" fill="#FFF0E4"/>
<path id="Oval Copy 7" fill-rule="evenodd" clip-rule="evenodd" d="M185.5 16C186.881 16 188 14.8807 188 13.5C188 12.1193 186.881 11 185.5 11C184.119 11 183 12.1193 183 13.5C183 14.8807 184.119 16 185.5 16Z" fill="#FFF0E4"/>
<path id="Oval Copy 9" fill-rule="evenodd" clip-rule="evenodd" d="M194.5 16C195.881 16 197 14.8807 197 13.5C197 12.1193 195.881 11 194.5 11C193.119 11 192 12.1193 192 13.5C192 14.8807 193.119 16 194.5 16Z" fill="#FFF0E4"/>
<rect id="Rectangle Copy 10" x="349.953" y="47.4819" width="67.4283" height="46.3855" rx="2.99699" fill="#FFF0E4"/>
<path id="Oval_2" fill-rule="evenodd" clip-rule="evenodd" d="M220.185 71.5C225.153 71.5 229.181 67.4706 229.181 62.5C229.181 57.5294 225.153 53.5 220.185 53.5C215.217 53.5 211.189 57.5294 211.189 62.5C211.189 67.4706 215.217 71.5 220.185 71.5Z" fill="#FFF0E4"/>
<rect id="Rectangle_3" x="272.41" y="47.4819" width="58.9998" height="75.75" rx="2.99699" fill="#FFF0E4"/>
<rect id="Rectangle Copy 12" x="211.257" y="115.327" width="7.67854" height="7.68373" rx="0.468373" stroke="#82CAC7" stroke-width="0.75"/>
<path id="Path 84" d="M208.612 116.331C216.788 123.256 212.503 122.417 219.81 109.531" stroke="#1A0D7C" stroke-width="2" stroke-linecap="round" stroke-linejoin="round"/>
<path id="Path 65" d="M211.189 88.0251H247.922" stroke="#82CAC7"/>
<path id="Path 65 Copy 3" d="M352.481 119.326H417.381" stroke="#82CAC7"/>
<path id="Path 65 Copy 2" d="M211.189 81.6386H247.922" stroke="#82CAC7"/>
<path id="Path 65 Copy 4" d="M352.481 108.066H417.381" stroke="#82CAC7"/>
<path id="Path 65 Copy" d="M223.525 117.06H248.263" stroke="#82CAC7"/>
<path id="Path 66" d="M211.189 93.8675H247.922" stroke="#82CAC7"/>
<path id="Path 66 Copy" d="M223.525 121.966H248.263" stroke="#82CAC7"/>
<path id="Oval_3" fill-rule="evenodd" clip-rule="evenodd" d="M343.406 157.56C344.803 157.56 345.935 156.427 345.935 155.03C345.935 153.633 344.803 152.5 343.406 152.5C342.01 152.5 340.878 153.633 340.878 155.03C340.878 156.427 342.01 157.56 343.406 157.56Z" fill="#1A0D7C"/>
<path id="Oval Copy 11" fill-rule="evenodd" clip-rule="evenodd" d="M407.876 75.8102C409.272 75.8102 410.404 74.6775 410.404 73.2801C410.404 71.8828 409.272 70.75 407.876 70.75C406.479 70.75 405.347 71.8828 405.347 73.2801C405.347 74.6775 406.479 75.8102 407.876 75.8102Z" fill="#1A0D7C"/>
</g>
<path id="Path 77" d="M352.325 49.7094C378.376 69.265 357.9 54.2913 416.469 90.6524" stroke="#82CAC7"/>
<g id="Group 28">
<path id="Shape" d="M217.414 400.335C217.414 380.268 201.236 364 181.279 364" stroke="#1A0D7C" stroke-width="2"/>
<g id="Group 23">
<path id="Mask_5" fill-rule="evenodd" clip-rule="evenodd" d="M180.494 429.037C195.678 429.037 207.988 416.659 207.988 401.391C207.988 386.122 195.678 373.745 180.494 373.745C165.309 373.745 153 386.122 153 401.391C153 416.659 165.309 429.037 180.494 429.037Z" fill="#F6DFD2"/>
<mask id="mask2_0_133" style="mask-type:luminance" maskUnits="userSpaceOnUse" x="153" y="373" width="55" height="57">
<path id="Mask_6" fill-rule="evenodd" clip-rule="evenodd" d="M180.494 429.037C195.678 429.037 207.988 416.659 207.988 401.391C207.988 386.122 195.678 373.745 180.494 373.745C165.309 373.745 153 386.122 153 401.391C153 416.659 165.309 429.037 180.494 429.037Z" fill="white"/>
</mask>
<g mask="url(#mask2_0_133)">
<g id="Group 23_2">
<path id="Path 7" d="M208.91 379.374C208.91 379.374 170.327 396.287 191.65 371.4" stroke="white" stroke-width="0.523691"/>
<path id="Path 8" d="M206.199 415.406C206.199 415.406 173.748 398.269 178.039 406.463C182.33 414.657 193.426 422.289 193.426 422.289C193.426 422.289 171.129 415.085 186.252 428.086C201.376 441.087 197.255 437.843 197.255 437.843" stroke="white" stroke-width="0.523691"/>
<path id="Oval_4" fill-rule="evenodd" clip-rule="evenodd" d="M165.343 396.82C167.879 396.231 169.724 394.835 169.464 393.701C169.204 392.568 166.937 392.126 164.4 392.715C161.864 393.304 160.019 394.7 160.279 395.834C160.539 396.967 162.807 397.409 165.343 396.82Z" fill="white"/>
<path id="Oval Copy 8" fill-rule="evenodd" clip-rule="evenodd" d="M207.099 407.952C208.633 409.495 210.539 410.078 211.357 409.256C212.176 408.433 211.595 406.516 210.061 404.974C208.528 403.431 206.621 402.848 205.803 403.67C204.985 404.493 205.565 406.41 207.099 407.952Z" fill="white"/>
</g>
</g>
</g>
</g>
<path id="Path 85" d="M413.854 52.1965C374.372 75.8102 379.017 75.8102 352.433 91.2985" stroke="#82CAC7"/>
<g id="Group 35">
<path id="Path 68" fill-rule="evenodd" clip-rule="evenodd" d="M113.611 203.258C113.611 203.258 113.19 187.847 125.556 184.534C137.922 181.221 135.549 173.388 142.927 168.975C150.306 164.562 150.306 169.938 158.314 167.568C166.322 165.199 169.199 162.302 176.696 164.562C184.193 166.823 186.827 177.481 186.827 177.481C186.827 177.481 194.445 184.534 191.265 193.391C188.086 202.249 182.739 202.969 184.183 213.486C185.627 224.003 180.448 229.379 180.448 229.379C180.448 229.379 155.429 223.381 142.927 218.429C130.425 213.477 113.611 203.258 113.611 203.258Z" fill="#1A0D7C"/>
<path id="Path 67" fill-rule="evenodd" clip-rule="evenodd" d="M184.81 178.712C184.81 178.712 182.459 195.405 178.757 200.384C175.054 205.364 164.481 205.152 164.481 205.152L161.562 215.048C161.562 215.048 150.245 219.525 145.864 212.697C141.483 205.869 143.239 202.168 143.239 202.168L151.757 187.885C151.757 187.885 146.766 181.05 150.99 177.425C155.215 173.8 158.972 178.605 165.057 176.832C171.452 174.97 177.1 168.975 177.1 168.975C177.1 168.975 178.993 173.539 180.428 175.374C181.863 177.208 184.81 178.712 184.81 178.712Z" fill="#F6DFD2"/>
<path id="Path 69" d="M152.375 179.778C158.351 180.333 153.32 179.646 152.925 182.961" stroke="#0E101A" stroke-width="0.75" stroke-linecap="round" stroke-linejoin="round"/>
<path id="Path 70" d="M167.302 192.838C167.584 195.283 167.584 195.283 168.771 196.15" stroke="#0E101A" stroke-linecap="round" stroke-linejoin="round"/>
<path id="Oval_5" fill-rule="evenodd" clip-rule="evenodd" d="M169.627 184.886C170.161 184.983 170.708 184.394 170.849 183.572C170.991 182.749 170.672 182.004 170.139 181.907C169.605 181.81 169.058 182.399 168.916 183.221C168.775 184.044 169.093 184.789 169.627 184.886Z" fill="#0E101A"/>
<path id="Oval Copy 10" fill-rule="evenodd" clip-rule="evenodd" d="M179.413 187.882C179.952 187.997 180.486 187.426 180.605 186.606C180.723 185.786 180.383 185.027 179.843 184.911C179.304 184.796 178.771 185.367 178.652 186.187C178.533 187.007 178.874 187.766 179.413 187.882Z" fill="#0E101A"/>
<path id="Path 33" fill-rule="evenodd" clip-rule="evenodd" d="M98.5769 266.305C98.5769 266.305 85.7505 301.005 74.8823 345.037C64.0141 389.069 51.0185 446.327 51.0185 446.327L102.963 448.022C102.963 448.022 99.4127 436.087 89.092 434.83C78.7712 433.572 72.6357 433.201 72.6357 433.201L74.1537 430.402L92.0948 429.498L117.962 319.293L124.361 428.191L124.361 444.651L170.79 446.682C170.79 446.682 171.36 438.031 159.542 435.106C147.725 432.182 141.44 431.199 141.44 431.199L141.892 428.637L156.439 427.831C156.439 427.831 156.878 385.962 158.044 348.804C159.21 311.646 155.973 275.996 155.973 275.996L98.5769 266.305Z" fill="#1A0D7C"/>
<path id="Path 71" d="M175.071 184.989C174.538 191.192 174.837 192.817 171.909 193.391" stroke="#0E101A" stroke-linecap="round"/>
<path id="Path 80" fill-rule="evenodd" clip-rule="evenodd" d="M232.756 253.336C239.925 247.682 242.494 248.813 250.027 246.305L246.956 266.625L237.129 270.048L229.757 257.023L232.756 253.336Z" fill="#F6DFD2" stroke="#1A0D7C"/>
<path id="Path 76" fill-rule="evenodd" clip-rule="evenodd" d="M127.436 289.282C127.436 289.282 144.707 300.737 141.275 301.166C137.843 301.594 134.141 300.666 134.141 300.666C134.141 300.666 142.549 309.376 141.271 309.977C139.993 310.578 134.605 307.366 134.605 307.366C134.605 307.366 140.082 313.469 138.092 314.134C136.102 314.798 130.597 309.586 130.597 309.586C130.597 309.586 135.001 313.777 134.071 315.011C133.142 316.245 128.258 311.531 128.258 311.531C128.258 311.531 130.668 314.91 128.256 314.741C125.844 314.572 112.266 297.034 112.266 297.034L127.436 289.282Z" fill="#F6DFD2"/>
<path id="Path 72" fill-rule="evenodd" clip-rule="evenodd" d="M161.562 215.048L183.813 224.129L200.725 262.302L229.641 248.337L245.592 272.371C245.592 272.371 210.887 303.294 193.301 298.547C175.714 293.801 161.562 264.299 161.562 264.299L156.311 276.631L124.924 271.208L132.171 286.986L104.958 302.414C104.958 302.414 61.9096 252.06 82.3294 227.37C102.749 202.68 127.108 196.766 127.108 196.766L143.239 202.168C143.239 202.168 144.886 212.289 149.357 215.048C153.827 217.807 161.562 215.048 161.562 215.048Z" fill="#9FDEEB"/>
<g id="Rectangle_4" filter="url(#filter1_dd_0_133)">
<path fill-rule="evenodd" clip-rule="evenodd" d="M240.17 198.272C240.17 198.272 251.548 192.269 258.281 192.223C265.013 192.178 278.577 198.014 278.577 198.014L283 208.223H236L240.17 198.272Z" fill="white"/>
</g>
<path id="Combined Shape" fill-rule="evenodd" clip-rule="evenodd" d="M251.004 240.546C244.807 238.656 239.284 234.503 235.789 228.45C228.471 215.775 232.813 199.568 245.488 192.25C258.163 184.932 274.37 189.275 281.688 201.95C289.006 214.624 284.663 230.832 271.988 238.149C267.18 240.926 261.863 242.023 256.716 241.625L246.33 280.414C246.059 281.424 245.056 282.056 244.028 281.862L242.258 281.529C241.114 281.314 240.394 280.171 240.696 279.047L251.004 240.546ZM269.479 233.989C279.762 228.052 283.286 214.903 277.348 204.62C271.411 194.336 258.262 190.813 247.979 196.75C237.696 202.687 234.172 215.836 240.109 226.12C246.046 236.403 259.196 239.926 269.479 233.989Z" fill="#6F4CFF"/>
<path id="Path 73" fill-rule="evenodd" clip-rule="evenodd" d="M128.614 271.85L118.363 251.409L122.505 239.167L115.842 251.865L124.924 271.208L128.614 271.85Z" fill="#F0F8FD"/>
<path id="Path 74" fill-rule="evenodd" clip-rule="evenodd" d="M161.562 264.299L171.506 241.737L164.285 270.048L161.562 264.299Z" fill="#F0F8FD"/>
<path id="Path 75" fill-rule="evenodd" clip-rule="evenodd" d="M198.87 258.174L192.153 265.579L200.725 262.302L198.87 258.174Z" fill="#F0F8FD"/>
<path id="Path 78" fill-rule="evenodd" clip-rule="evenodd" d="M175.766 165C175.766 165 171.626 157.202 176.768 155.635C181.911 154.069 183.264 159.226 181.5 162.792C179.735 166.357 175.766 165 175.766 165Z" fill="#1A0D7C"/>
<path id="Path 82" fill-rule="evenodd" clip-rule="evenodd" d="M257.282 246.406C255.237 245.401 251.441 247.508 251.598 248.79C251.755 250.073 255.739 249.686 255.739 249.686C255.739 249.686 255.41 250.331 255.24 250.363C251.27 251.108 249.222 251.744 249.141 253.437C249.014 256.086 253.223 255.941 253.223 255.941C253.223 255.941 253.33 256.365 253.201 256.399C250.63 257.077 248.937 257.694 248.876 258.966C248.78 260.971 252.191 261.29 252.191 261.29C252.191 261.29 248.881 262.102 248.69 262.854C248.499 263.605 248.449 265.145 251.519 265.265C254.589 265.385 257.28 260.194 258.373 255.66C259.627 250.455 259.326 247.411 257.282 246.406Z" fill="#F6DFD2" stroke="#1A0D7C" stroke-linejoin="round"/>
<g id="Path 81">
<path fill-rule="evenodd" clip-rule="evenodd" d="M239.079 254.467C241.124 253.493 243.479 252.539 245.478 252.539C251.054 252.539 249.51 255.417 246.837 256.635C244.164 257.852 242.398 259.138 242.398 259.138" fill="#F6DFD2"/>
<path d="M239.079 254.467C241.124 253.493 243.479 252.539 245.478 252.539C251.054 252.539 249.51 255.417 246.837 256.635C244.164 257.852 242.398 259.138 242.398 259.138" stroke="#1A0D7C"/>
</g>
</g>
<path id="Path 79" d="M78 136.75C88.3213 131.42 93.6428 124.475 101.058 124.475C108.474 124.475 111.318 131.42 115.176 129.234C119.034 127.049 119.034 114.155 131.697 111.579C144.36 109.004 151.083 127.049 151.083 127.049C151.083 127.049 154.309 106.498 158.419 99.7749C167.686 84.6154 173.814 81.7762 176.953 76" stroke="#82CAC7" stroke-width="2"/>
<path id="Path" fill-rule="evenodd" clip-rule="evenodd" d="M458.968 150.568L469.629 141.93L488.892 165.73L503.107 154.213L483.844 130.414L494.505 121.776L454.133 108.964L458.968 150.568Z" fill="#FFF0E4" stroke="#1A0D7C" stroke-linejoin="round"/>
<g id="Group 34">
<path id="Path 61" fill-rule="evenodd" clip-rule="evenodd" d="M449.246 254.893L375.735 275.371L344.784 204.605C344.784 204.605 349.364 198.809 351.176 196.199C354.817 190.955 354.269 188.346 354.269 182.798C354.269 180.455 349.506 167.012 347.612 173.599C345.717 180.185 348.646 179.109 347.27 181.517C345.893 183.924 345.14 182.798 345.14 182.798C345.14 182.798 352.652 153.25 347.27 153.25C341.887 153.25 338.114 176.12 338.114 176.12C338.114 176.12 340.142 169.858 336.375 169.858C332.607 169.858 329.892 175.277 329.892 175.277C329.892 175.277 331.095 171.217 328.449 171.217C325.804 171.217 323.765 175.476 323.765 175.476C323.765 175.476 324.003 172.903 322.147 173.251C320.291 173.599 319.541 178.79 318.866 183.743C318.19 188.695 319 198.271 320.538 205.256C322.075 212.242 329.721 240.109 334.188 253.15C338.655 266.191 352.992 308.905 361.997 308.905C371.002 308.905 417.401 299.755 417.401 299.755L507.7 282.888C507.7 282.888 516.273 291.47 518.439 296.279C531.48 325.226 555.418 346.674 545.83 367.014C540.574 378.162 537.508 379.232 540.062 380.688C541.106 381.283 543.704 380.569 545.83 378.435C548.906 375.348 549.604 374.014 551.276 375.026C554.548 377.007 543.295 392.537 550.416 391.701C552.487 391.458 557.548 376.577 557.548 376.577C557.548 376.577 554.711 395.288 557.536 395.288C560.362 395.288 563.433 377.319 563.433 377.319C563.433 377.319 562.405 392.537 564.458 392.537C566.511 392.537 567.844 378.435 567.844 378.435C567.844 378.435 569.665 389.484 570.118 388.314C571.612 384.454 576.666 371.104 572.744 357.593C555.287 297.449 548.331 288.576 534.161 271.925C519.99 255.275 484.731 250.33 484.731 250.33L449.246 254.893Z" fill="#F6DFD2" stroke="#1A0D7C" stroke-linejoin="round"/>
<path id="Path 62" fill-rule="evenodd" clip-rule="evenodd" d="M424.875 331.949L428.229 348.528C428.229 348.528 340.429 403.479 327.287 420.351C314.145 437.223 307.415 448.849 323.295 463.027C331.19 470.076 359.661 468.429 388.534 470.551C389.553 470.626 405.712 469.204 405.712 469.204C405.712 469.204 409.683 469.006 420.156 470.551C425.724 471.373 441.747 472.704 441.747 472.704L402.492 434.634L370.839 432.616L466.939 386.621C466.939 386.621 450.929 449.948 449.824 457.104C448.718 464.26 449.909 472.704 453.554 473.25C457.199 473.796 554.302 473.25 554.302 473.25L560.115 472.704C560.115 472.704 572.016 474.606 579.851 474.713C587.686 474.819 609.65 472.704 609.65 472.704C609.65 472.704 561.388 438.983 560.115 438.983C558.841 438.983 499.212 435.391 499.212 435.391C499.212 435.391 527.217 375.026 522.251 344.307C517.284 313.588 519.155 331.949 519.155 331.949H424.875Z" fill="#1A0D7C"/>
<path id="Path 63" fill-rule="evenodd" clip-rule="evenodd" d="M435.962 208.745C432.813 213.166 432.536 213.621 431.938 222.636C431.341 231.651 430.351 240.134 434.246 241.083C438.141 242.031 441.184 240.455 441.184 240.455L445.462 254.962C445.462 254.962 452.661 256.452 456.639 255.908C460.617 255.364 467.98 251.907 467.98 251.907C467.98 251.907 461.906 209.254 452.429 207.451C443.513 205.755 439.111 204.323 435.962 208.745Z" fill="#F6DFD2"/>
<path id="Path 60" d="M432.382 224.53C431.521 226.283 431.109 228.035 431.109 228.035" stroke="#0E101A" stroke-linecap="round" stroke-linejoin="round"/>
<g id="Path 87 + Path 86 Mask">
<path id="Mask_7" fill-rule="evenodd" clip-rule="evenodd" d="M445.921 254.893C445.921 254.893 433.479 256.908 420.455 260.597C407.431 264.286 387.23 271.207 387.23 271.207L398.827 304.677L417.401 301.119L424.691 343.833L524.886 342.196L507.232 286.04L513.769 291.214L534.91 268.425C534.91 268.425 518.356 253.89 509.105 250.912C499.853 247.933 494.154 248.326 485.195 248.904C476.236 249.481 467.98 251.907 467.98 251.907C467.98 251.907 461.799 255.503 458.135 256.054C451.219 257.093 445.921 254.893 445.921 254.893Z" fill="#82CAC7"/>
<mask id="mask3_0_133" style="mask-type:luminance" maskUnits="userSpaceOnUse" x="387" y="248" width="148" height="96">
<path id="Mask_8" fill-rule="evenodd" clip-rule="evenodd" d="M445.921 254.893C445.921 254.893 433.479 256.908 420.455 260.597C407.431 264.286 387.23 271.207 387.23 271.207L398.827 304.677L417.401 301.119L424.691 343.833L524.886 342.196L507.232 286.04L513.769 291.214L534.91 268.425C534.91 268.425 518.356 253.89 509.105 250.912C499.853 247.933 494.154 248.326 485.195 248.904C476.236 249.481 467.98 251.907 467.98 251.907C467.98 251.907 461.799 255.503 458.135 256.054C451.219 257.093 445.921 254.893 445.921 254.893Z" fill="white"/>
</mask>
<g mask="url(#mask3_0_133)">
<path id="Oval_6" fill-rule="evenodd" clip-rule="evenodd" d="M445.131 307.073C446.404 307.537 448.062 306.191 448.834 304.067C449.606 301.943 449.2 299.845 447.927 299.381C446.654 298.917 444.996 300.263 444.224 302.387C443.452 304.511 443.858 306.609 445.131 307.073Z" fill="white" stroke="white" stroke-width="0.545455"/>
<path id="Oval Copy 12" fill-rule="evenodd" clip-rule="evenodd" d="M500.198 314.647C499.772 315.074 500.117 316.11 500.969 316.963C501.82 317.815 502.856 318.161 503.281 317.734C503.707 317.308 503.362 316.272 502.51 315.419C501.659 314.567 500.624 314.221 500.198 314.647Z" fill="white" stroke="white" stroke-width="0.545455"/>
<path id="Path 87" d="M500.118 247.247C495.018 251.912 489.366 256.035 484.818 261.24C480.02 266.733 465.051 292.568 479.594 297.424C484.804 299.164 488.215 298.175 493.912 295.958C496.642 294.896 499.057 293.132 501.46 291.456C502.885 290.462 504.188 289.278 505.348 287.984C506.39 286.822 507.432 285.585 508.02 284.139C515.409 265.961 488.119 283.527 491.071 292.922C492.258 296.7 497.181 297.515 500.279 297.672C512.958 298.315 523.026 294.381 534.354 289.428" stroke="white"/>
<path id="Path 86" d="M463.284 252.958C457.466 259.657 447.784 271.593 438.453 257.862C437.676 256.719 435.64 254.081 437.017 253.971C441.068 253.65 444.921 255.88 448.815 257.04C449.826 257.341 450.853 257.712 451.697 258.345C452.399 258.872 453.525 259.565 453.319 260.419C451.284 268.877 426.961 275.625 424.222 261.398C423.805 259.235 421.77 253.806 423.728 254.81C441.115 263.724 444.698 278.392 435.83 294.005C433.154 298.718 430.128 303.241 426.864 307.567C425.892 308.854 424.696 310.12 423.205 310.732C418.802 312.539 405.01 313.093 409.49 314.698C414.804 316.603 420.551 312.302 426.172 311.795C428.469 311.588 430.787 312.114 433.047 312.575C440.597 314.115 454.372 333.321 448.796 339.195C447.865 340.176 445.094 336.613 445.202 336.009C445.766 332.862 449.874 330.604 452.159 329.496C456.083 327.592 466.447 328.084 470.62 326.819C478.353 324.477 483.243 311.313 487.772 318.707C490.394 322.987 485.508 341.584 487.772 341.939" stroke="white"/>
</g>
</g>
<path id="Shape_2" d="M443.15 219.174C441.187 218.295 439.789 220.709 439.721 220.983" stroke="#0E101A" stroke-linecap="round" stroke-linejoin="round"/>
<path id="Oval_7" fill-rule="evenodd" clip-rule="evenodd" d="M434.241 222.297C434.775 222.375 435.322 221.77 435.463 220.945C435.604 220.121 435.285 219.389 434.751 219.31C434.218 219.232 433.67 219.837 433.53 220.662C433.389 221.486 433.707 222.218 434.241 222.297Z" fill="#0E101A"/>
<path id="Path 64" fill-rule="evenodd" clip-rule="evenodd" d="M432.291 205.557C430.997 207.686 435.402 211.904 435.402 211.904C435.402 211.904 437.513 213.433 437.513 214.5C437.513 217 438.632 219.189 438.632 219.189C438.632 219.189 442.48 215.249 444.203 218.432C445.826 221.43 446.078 223.696 441.368 227.133C441.289 227.191 445.01 231.568 445.01 231.568C445.01 231.568 446.576 235.583 450.687 238.732C454.468 241.628 455.069 243.303 460.06 243.303C465.05 243.303 469.102 237.858 468.702 234.311C468.53 232.784 467.958 207.358 457.408 202.808C452.328 200.617 435.507 200.268 432.291 205.557Z" fill="#1A0D7C"/>
<path id="Path 90" fill-rule="evenodd" clip-rule="evenodd" d="M476.154 373.478L458.833 419.019L466.939 386.621L476.154 373.478Z" fill="#2D3880"/>
<path id="Path 92" d="M347.572 430.95C352.061 431.186 370.524 432.711 370.524 432.711C370.524 432.711 364.481 435.174 362.181 437.621" stroke="#2D3880"/>
</g>
<path id="Path_2" d="M328.34 121.966L274.156 51.0081V51.0081" stroke="#82CAC7"/>
<path id="Oval_8" fill-rule="evenodd" clip-rule="evenodd" d="M536.835 215.069C540.303 214.14 542.071 209.495 540.784 204.693C539.498 199.892 535.644 196.753 532.176 197.682C528.709 198.611 526.941 203.257 528.227 208.058C529.514 212.859 533.367 215.998 536.835 215.069Z" fill="#9FDEEB"/>
<path id="Path_3" d="M277.59 120.412L326.308 51.0081" stroke="#82CAC7"/>
<path id="Path 83" d="M408.932 74.8553C408.932 74.8553 428.943 117.601 373.409 121.622C317.876 125.644 341.627 153.53 341.627 153.53" stroke="#1A0D7C"/>
<g id="Group 38" clip-path="url(#clip0_0_133)">
<rect id="Rectangle_5" y="166" width="51" height="38" fill="#1A0D7C"/>
<path id="Rectangle Copy 11" fill-rule="evenodd" clip-rule="evenodd" d="M6 161H64V198.174V209L53.2137 198.174H6V161Z" fill="#82CAC7"/>
<path id="&#60;/&#62;" d="M28.828 181.854L25.7212 178.779L28.9338 175.795L28.9359 175.675L27.3833 174.088L22.7045 178.567L22.6992 178.867L27.2189 183.506L28.8259 181.974L28.828 181.854ZM39.1913 169.973L36.6317 169.928L29.6767 186.77L32.2163 186.814L39.1913 169.973ZM43.0945 179.083L39.8823 182.047L39.8802 182.167L41.4327 183.754L46.1116 179.275L46.1168 178.975L41.5971 174.336L39.9901 175.868L39.988 175.988L43.0945 179.083Z" fill="white"/>
</g>
</g>
<defs>
<filter id="filter0_dd_0_133" x="122.211" y="-33" width="414.599" height="294" filterUnits="userSpaceOnUse" color-interpolation-filters="sRGB">
<feFlood flood-opacity="0" result="BackgroundImageFix"/>
<feColorMatrix in="SourceAlpha" type="matrix" values="0 0 0 0 0 0 0 0 0 0 0 0 0 0 0 0 0 0 127 0" result="hardAlpha"/>
<feOffset dx="2" dy="4"/>
<feGaussianBlur stdDeviation="8"/>
<feColorMatrix type="matrix" values="0 0 0 0 0.144205 0 0 0 0 0.163174 0 0 0 0 0.352865 0 0 0 0.0806381 0"/>
<feBlend mode="normal" in2="BackgroundImageFix" result="effect1_dropShadow_0_133"/>
<feColorMatrix in="SourceAlpha" type="matrix" values="0 0 0 0 0 0 0 0 0 0 0 0 0 0 0 0 0 0 127 0" result="hardAlpha"/>
<feOffset dx="4" dy="8"/>
<feGaussianBlur stdDeviation="24"/>
<feColorMatrix type="matrix" values="0 0 0 0 0.0373489 0 0 0 0 0.015989 0 0 0 0 0.19837 0 0 0 0.106179 0"/>
<feBlend mode="normal" in2="effect1_dropShadow_0_133" result="effect2_dropShadow_0_133"/>
<feBlend mode="normal" in="SourceGraphic" in2="effect2_dropShadow_0_133" result="shape"/>
</filter>
<filter id="filter1_dd_0_133" x="192" y="152.223" width="143" height="112" filterUnits="userSpaceOnUse" color-interpolation-filters="sRGB">
<feFlood flood-opacity="0" result="BackgroundImageFix"/>
<feColorMatrix in="SourceAlpha" type="matrix" values="0 0 0 0 0 0 0 0 0 0 0 0 0 0 0 0 0 0 127 0" result="hardAlpha"/>
<feOffset dx="2" dy="4"/>
<feGaussianBlur stdDeviation="8"/>
<feColorMatrix type="matrix" values="0 0 0 0 0.144205 0 0 0 0 0.163174 0 0 0 0 0.352865 0 0 0 0.0806381 0"/>
<feBlend mode="normal" in2="BackgroundImageFix" result="effect1_dropShadow_0_133"/>
<feColorMatrix in="SourceAlpha" type="matrix" values="0 0 0 0 0 0 0 0 0 0 0 0 0 0 0 0 0 0 127 0" result="hardAlpha"/>
<feOffset dx="4" dy="8"/>
<feGaussianBlur stdDeviation="24"/>
<feColorMatrix type="matrix" values="0 0 0 0 0.0373489 0 0 0 0 0.015989 0 0 0 0 0.19837 0 0 0 0.106179 0"/>
<feBlend mode="normal" in2="effect1_dropShadow_0_133" result="effect2_dropShadow_0_133"/>
<feBlend mode="normal" in="SourceGraphic" in2="effect2_dropShadow_0_133" result="shape"/>
</filter>
<clipPath id="clip0_0_133">
<rect width="64" height="48" fill="white" transform="translate(0 161)"/>
</clipPath>
</defs>
</svg>
